<?xml version="1.0" encoding="UTF-8" standalone="no"?>
<svg width="3200px" height="504px" viewBox="0 0 3200 504" version="1.1" xmlns="http://www.w3.org/2000/svg" xmlns:xlink="http://www.w3.org/1999/xlink">
    <!-- Generator: Sketch 3.7.2 (28276) - http://www.bohemiancoding.com/sketch -->
    <title>gdg_newdelhi_banner_logo</title>
    <desc>Created with Sketch.</desc>
    <defs>
        <rect id="path-1" x="0" y="0" width="2871" height="504"></rect>
        <radialGradient cx="-54.150814%" cy="-174.152387%" fx="-54.150814%" fy="-174.152387%" r="402.149568%" id="radialGradient-3">
            <stop stop-color="#FFCE4E" offset="0%"></stop>
            <stop stop-color="#F5C337" offset="100%"></stop>
        </radialGradient>
        <radialGradient cx="-6.59352776%" cy="-88.3507201%" fx="-6.59352776%" fy="-88.3507201%" r="326.486819%" id="radialGradient-4">
            <stop stop-color="#0DA960" offset="0%"></stop>
            <stop stop-color="#05924B" offset="100%"></stop>
        </radialGradient>
        <radialGradient cx="-4.42150463%" cy="-2.56197296%" fx="-4.42150463%" fy="-2.56197296%" r="226.258274%" id="radialGradient-5">
            <stop stop-color="#577EC0" offset="0%"></stop>
            <stop stop-color="#557EBF" offset="100%"></stop>
        </radialGradient>
        <radialGradient cx="-35.1591219%" cy="-3.23265886%" fx="-35.1591219%" fy="-3.23265886%" r="261.044035%" id="radialGradient-6">
            <stop stop-color="#E04B3F" offset="0%"></stop>
            <stop stop-color="#CD382D" offset="100%"></stop>
        </radialGradient>
        <linearGradient x1="122.536553%" y1="50.0012771%" x2="-2.70048734%" y2="50.0012771%" id="linearGradient-7">
            <stop stop-color="#231F20" stop-opacity="0.2" offset="0%"></stop>
            <stop stop-color="#F2F2F2" stop-opacity="0.25" offset="100%"></stop>
        </linearGradient>
        <radialGradient cx="49.9999064%" cy="50.0001453%" fx="49.9999064%" fy="50.0001453%" r="70.2905511%" id="radialGradient-8">
            <stop stop-color="#FFFFFF" stop-opacity="0.1" offset="0%"></stop>
            <stop stop-color="#FFFFFF" stop-opacity="0.091" offset="8.96%"></stop>
            <stop stop-color="#FFFFFF" stop-opacity="0" offset="100%"></stop>
        </radialGradient>
    </defs>
    <g id="branding" stroke="none" stroke-width="1" fill="none" fill-rule="evenodd">
        <g id="logos" transform="translate(-373.000000, -150.000000)">
            <g id="gdg_newdelhi_banner_logo" transform="translate(370.000000, 150.000000)">
                <g id="background" fill="#F0F0F0">
                    <rect id="bgMiddle" x="712.8" y="3.6" width="1778.4" height="496.8"></rect>
                    <g id="bgLeft">
                        <path d="M2851.3152,231.2568 L2727.4536,24.948 C2720.6064,13.5576 2704.1112,4.2048 2690.7912,4.2048 L2690.3808,4.2048 L17.8776,4.2336 C5.5008,4.2336 0.54,12.4056 5.364,22.6944 L130.0824,231.1992 C136.9296,242.6472 136.9296,261.2952 130.0824,272.6856 L6.1632,478.98 C-0.684,490.3704 4.608,499.7232 17.8776,499.7232 L2690.784,499.6944 C2704.104,499.6944 2720.5992,490.3992 2727.4464,478.9656 L2851.308,272.7216 C2858.1696,261.2952 2858.1696,242.6472 2851.3152,231.2568 L2851.3152,231.2568 Z" id="bgLeftPath"></path>
                    </g>
                    <g id="bgRight" transform="translate(345.600000, 0.000000)">
                        <path d="M2851.3152,231.2568 L2727.4536,24.948 C2720.6064,13.5576 2704.1112,4.2048 2690.7912,4.2048 L2690.3808,4.2048 L17.8776,4.2336 C5.5008,4.2336 0.54,12.4056 5.364,22.6944 L130.0824,231.1992 C136.9296,242.6472 136.9296,261.2952 130.0824,272.6856 L6.1632,478.98 C-0.684,490.3704 4.608,499.7232 17.8776,499.7232 L2690.784,499.6944 C2704.104,499.6944 2720.5992,490.3992 2727.4464,478.9656 L2851.308,272.7216 C2858.1696,261.2952 2858.1696,242.6472 2851.3152,231.2568 L2851.3152,231.2568 Z" id="bgRightPath"></path>
                    </g>
                </g>
                <g id="Group">
                    <g id="SVGID_8_" fill="#F0F0F0">
                        <g id="background">
                            <rect id="bgMiddle" x="712.8" y="3.6" width="1778.4" height="496.8"></rect>
                            <g id="bgLeft">
                                <path d="M2851.3152,231.2568 L2727.4536,24.948 C2720.6064,13.5576 2704.1112,4.2048 2690.7912,4.2048 L2690.3808,4.2048 L17.8776,4.2336 C5.5008,4.2336 0.54,12.4056 5.364,22.6944 L130.0824,231.1992 C136.9296,242.6472 136.9296,261.2952 130.0824,272.6856 L6.1632,478.98 C-0.684,490.3704 4.608,499.7232 17.8776,499.7232 L2690.784,499.6944 C2704.104,499.6944 2720.5992,490.3992 2727.4464,478.9656 L2851.308,272.7216 C2858.1696,261.2952 2858.1696,242.6472 2851.3152,231.2568 L2851.3152,231.2568 Z" id="bgLeftPath"></path>
                            </g>
                            <g id="bgRight" transform="translate(345.600000, 0.000000)">
                                <path d="M2851.3152,231.2568 L2727.4536,24.948 C2720.6064,13.5576 2704.1112,4.2048 2690.7912,4.2048 L2690.3808,4.2048 L17.8776,4.2336 C5.5008,4.2336 0.54,12.4056 5.364,22.6944 L130.0824,231.1992 C136.9296,242.6472 136.9296,261.2952 130.0824,272.6856 L6.1632,478.98 C-0.684,490.3704 4.608,499.7232 17.8776,499.7232 L2690.784,499.6944 C2704.104,499.6944 2720.5992,490.3992 2727.4464,478.9656 L2851.308,272.7216 C2858.1696,261.2952 2858.1696,242.6472 2851.3152,231.2568 L2851.3152,231.2568 Z" id="bgRightPath"></path>
                            </g>
                        </g>
                    </g>
                    <g id="world" transform="translate(158.400000, 0.000000)">
                        <mask id="mask-2" fill="white">
                            <use xlink:href="#path-1"></use>
                        </mask>
                        <g id="Mask"></g>
                        <g mask="url(#mask-2)" id="Shape" fill="#E0E0E0">
                            <g transform="translate(-21.600000, -568.800000)">
                                <path d="M2505.3192,133.6536 C2491.9344,125.9568 2480.6376,135.936 2471.7528,136.1952 C2463.8976,136.4184 2454.7896,132.3864 2446.0632,131.0832 C2440.1376,130.212 2434.5072,131.7312 2427.984,131.0832 C2415.024,129.6216 2401.7256,124.5888 2389.3488,123.3 C2369.1096,121.4208 2360.2824,129.924 2345.6016,131.0832 C2342.4912,134.9208 2342.2968,141.6528 2337.7968,144.0144 C2327.7528,142.056 2321.8488,151.2432 2314.6344,154.26 C2309.4144,156.5064 2302.7832,157.2264 2296.6344,159.48 C2290.8672,161.3736 2286.2952,166.5288 2278.512,164.4912 C2267.7624,159.228 2261.2752,145.2384 2247.6384,144.0144 C2234.7648,142.848 2223.7632,156.3696 2211.5808,156.8664 C2207.4048,157.0176 2204.9928,155.4264 2201.1696,154.26 C2197.6416,153.0792 2190.6432,152.7624 2188.4112,151.6824 C2180.6064,148.2624 2178.5904,140.1912 2167.7472,138.744 C2159.928,137.8728 2152.8792,142.848 2144.592,144.0144 C2132.496,145.6056 2122.0128,140.7816 2111.112,146.52 C2104.488,154.4688 2111.8464,164.9088 2111.112,174.8592 C2101.716,179.244 2091.8376,183.1752 2080.1664,185.2416 C2072.1096,188.2224 2072.8656,200.1744 2062.1592,200.5992 C2041.092,186.552 2039.364,153.0216 1995.084,162.0648 C1990.368,169.3008 1990.368,181.2384 1979.6904,182.5848 C1968.084,183.2112 1963.1664,175.4208 1951.2792,174.8592 C1937.5344,174.1968 1920.4056,188.1432 1907.5032,174.8592 C1910.9592,135.4824 1882.512,109.0728 1848.276,123.3072 C1835.6616,119.6064 1829.7864,109.2168 1814.7672,107.9136 C1814.4792,111.9096 1808.1936,109.908 1809.6408,115.6392 C1800.4824,124.0704 1811.9952,136.7064 1809.6408,144.0144 C1805.7312,155.6712 1795.9896,157.0176 1781.3376,159.4728 C1768.7304,179.8272 1736.9496,187.704 1747.764,223.812 C1742.5728,228.8304 1730.7936,227.4912 1729.6992,236.7 C1723.7808,239.4 1724.4504,248.58 1724.6736,257.2416 C1713.024,262.1016 1706.8752,272.3472 1693.6632,275.3712 C1683.6192,268.2792 1679.7456,254.9736 1662.8256,254.7288 C1660.3704,265.2696 1654.3944,290.9016 1655.0352,301.0824 C1655.6976,311.6952 1667.4912,320.9544 1660.2192,329.4576 C1644.5016,326.4336 1635.7032,323.8056 1619.0208,326.8656 C1617.4872,331.4016 1622.088,341.9712 1616.4216,342.3816 C1604.5128,352.6128 1588.1472,345.9312 1575.2304,350.1864 C1574.2152,350.3592 1571.2776,354.5712 1569.9744,355.2408 C1566.648,356.9832 1562.6016,355.6656 1559.772,357.804 C1551.636,363.8016 1550.5416,377.0928 1539.0576,378.4104 C1534.0608,372.2616 1535.6664,359.4816 1523.5992,360.4248 C1513.044,365.4792 1530.4608,389.304 1513.368,391.2624 C1502.1504,390.4632 1503.6048,377.0856 1497.888,370.5912 C1477.8144,359.9136 1457.316,349.38 1430.8848,344.916 C1423.764,336.8232 1418.4792,328.932 1410.3216,326.8584 C1386.1512,320.8752 1368.288,336.9024 1358.7552,342.3744 C1351.4472,346.5216 1347.5736,346.9464 1343.2968,350.1792 C1338.0336,353.9952 1333.6128,357.372 1330.3872,360.4248 C1321.632,368.5176 1323.7416,378.4104 1320.1344,388.6776 C1318.6152,393.0048 1312.4232,397.908 1309.788,404.1288 C1306.8864,411.2064 1307.628,419.4144 1304.6472,424.7856 C1304.1648,425.6208 1300.2552,426.492 1299.4416,427.3344 C1297.656,429.408 1298.6856,432.9288 1296.9288,435.0672 C1283.6592,451.6416 1268.784,453.996 1258.2864,468.5976 C1259.1072,489.2184 1260.468,509.3136 1271.088,520.1352 C1287.7632,523.908 1288.5552,511.6968 1301.9976,512.4384 C1305.6048,517.4208 1304.5032,527.112 1307.268,532.9872 C1303.4448,529.2576 1290.348,529.2576 1286.5176,532.9872 C1280.6712,543.9384 1288.0296,552.7152 1286.5176,566.5176 C1280.0304,571.1256 1272.2544,574.5528 1263.4056,576.7704 C1256.5728,583.704 1253.0808,594.0216 1242.7632,597.3552 C1241.6976,584.5752 1218.4992,560.232 1209.2688,540.7344 C1206.6696,535.0176 1209.7152,527.5728 1206.7272,522.7128 C1201.7304,514.3968 1189.836,513.7776 1183.4784,517.4856 C1176.264,522.3816 1178.712,536.6952 1178.352,548.4672 C1160.6544,553.8744 1144.9224,572.1408 1152.5472,594.7488 C1167.5088,597.7872 1171.3464,589.5576 1180.9584,587.0808 C1184.6376,578.808 1182.0456,564.1992 1193.796,563.9112 C1198.7928,574.56 1184.7528,595.0368 1193.796,610.2864 C1202.472,611.928 1217.772,607.0176 1222.1856,612.8784 C1217.2536,621.6984 1204.812,623.1384 1196.3952,628.3368 C1196.8992,645.4008 1221.3072,649.4832 1216.98,667.0296 C1211.1192,691.5744 1180.6632,670.9752 1160.3448,682.4232 C1153.9152,687.6216 1158.9192,696.888 1157.7528,705.6432 C1155.8952,719.7264 1149.3144,731.4552 1155.1536,741.636 C1163.9808,751.5864 1176.5664,747.1224 1178.352,759.6936 C1180.3824,773.532 1164.3336,776.7936 1152.5472,790.6752 C1147.14,797.1048 1146.5136,816.5808 1144.9224,818.9784 C1139.7024,826.7472 1126.656,830.5992 1119.1608,837.0288 C1110.2616,844.5528 1104.48,854.8416 1098.5688,865.44 C1094.6448,872.2224 1089.072,881.6688 1088.1576,888.5304 C1086.7176,899.4384 1091.844,916.6104 1090.7496,929.7864 C1090.3176,934.38 1086.2136,938.844 1085.7168,942.6528 C1081.0224,970.4808 1097.5248,975.168 1108.8,989.1072 C1112.9976,994.3056 1113.5088,997.2504 1116.5544,1001.9304 C1122.5448,1011.0528 1126.5336,1014.1776 1134.5832,1019.952 C1142.244,1025.424 1145.3544,1028.8872 1152.5472,1032.948 C1170.036,1042.3944 1173.492,1033.0056 1193.796,1032.948 C1201.0032,1032.84 1208.7504,1036.2672 1214.4528,1035.396 C1220.0184,1034.6544 1225.9584,1029.7584 1232.4888,1027.6488 C1258.1352,1019.3832 1262.5632,1024.128 1278.8784,1040.5944 C1290.4848,1040.148 1301.8392,1040.004 1304.6256,1048.32 C1311.1344,1060.6824 1298.7504,1074.2544 1301.9832,1089.5544 C1304.856,1102.4136 1319.0904,1109.34 1325.232,1120.464 C1328.5368,1126.4688 1333.4832,1137.0744 1335.6288,1146.1752 C1337.1984,1153.872 1339.4448,1169.28 1338.0912,1177.1208 C1337.1408,1183.0896 1329.984,1185.732 1327.824,1189.944 C1326.3984,1192.7808 1325.8224,1198.44 1325.232,1200.3336 C1318.68,1221.5448 1326.0168,1236.4056 1332.9504,1251.8856 C1336.2696,1259.4024 1341.396,1266.9192 1343.2752,1275.0624 C1345.6512,1285.4736 1344.3624,1294.6392 1345.8096,1303.3512 C1348.344,1317.744 1361.7576,1328.3136 1366.4736,1342.0872 C1371.024,1355.4072 1366.2576,1370.7432 1379.3976,1380.6504 C1397.952,1377.972 1418.472,1378.5408 1433.4192,1375.524 C1436.5296,1374.84 1451.0952,1368.0792 1451.5416,1367.7624 C1458.9144,1360.7064 1465.704,1355.4 1474.74,1344.5784 C1486.584,1330.524 1497.5496,1317.2904 1500.4296,1298.2536 C1509.7032,1289.7936 1517.4864,1291.284 1521.0936,1280.1672 C1524.3048,1270.0728 1517.5584,1255.9536 1521.0936,1246.6872 C1527.1416,1230.8112 1557.1872,1225.6848 1564.8192,1213.2216 C1572.372,1201.2048 1571.1264,1171.1016 1567.4256,1161.7272 C1564.3944,1154.1024 1560.4992,1146.0312 1559.7648,1138.4496 C1558.3464,1125.5976 1562.4432,1117.3824 1564.8192,1112.6664 C1570.608,1101.4056 1571.9976,1098.3816 1580.2848,1089.5544 C1586.3544,1083.132 1593.5688,1074.6648 1598.2632,1071.504 C1613.2104,1061.5752 1630.8792,1046.3616 1637.0496,1032.9552 C1637.4312,1031.904 1641.5856,1031.364 1642.104,1030.3488 C1650.1176,1016.1504 1658.124,998.568 1660.212,981.3096 C1644.264,964.4184 1604.8368,998.9928 1595.7504,973.584 C1600.38,965.5128 1613.16,964.9224 1624.104,960.7464 C1635.6888,956.2464 1651.1184,950.4792 1660.212,945.2808 C1662.7608,943.7472 1663.4088,941.3208 1665.2592,940.1616 C1675.3176,933.84 1685.0808,932.7888 1693.656,927.2304 C1695.0096,926.3592 1697.256,923.2272 1698.7968,922.032 C1706.652,915.6744 1711.2096,910.8288 1716.8472,901.4472 C1721.5992,893.5848 1725.6528,887.1984 1724.6664,880.8408 C1722.1176,865.08 1703.8512,872.0496 1701.3888,852.5376 C1727.6688,856.8792 1747.4688,857.412 1776.1392,855.0864 C1789.56,866.5704 1804.068,877.032 1812.1536,893.7288 C1821.7224,894.564 1829.8728,896.6736 1835.4168,901.44 C1836.36,924.3864 1847.4768,940.1544 1853.4744,953.0064 C1855.1304,956.7576 1854.54,959.4648 1855.98,963.3312 C1857.2976,966.6 1859.904,968.3856 1861.1208,971.028 C1866.96,983.0088 1871.2224,994.5288 1879.2144,1004.4792 C1888.7976,1006.3584 1890.2952,1000.08 1899.8496,1001.9304 C1899.5616,1014.2496 1903.0104,1022.8176 1912.7592,1025.1432 C1916.5248,1022.7528 1925.3304,1012.2192 1917.8064,1007.1288 C1919.2392,995.3928 1904.1048,1000.2312 1904.9544,989.1072 C1902.3696,979.9992 1907.5032,963.468 1907.5032,960.7392 C1907.5032,959.8824 1904.4576,955.0728 1904.9544,950.4 C1906.1136,941.0544 1928.0088,922.1616 1935.864,914.364 C1954.584,895.644 1963.6848,882.936 1990.0368,883.4904 C2004.1848,897.5376 2016.828,913.2768 2023.4736,934.884 C2031.2784,938.5632 2032.7544,933.7248 2044.1088,934.884 C2052.5544,947.9448 2058.2568,963.576 2062.1592,981.3024 C2072.1096,980.2152 2069.2512,966.0024 2082.7296,968.3784 C2107.2456,976.9104 2100.1608,996.9696 2121.4656,996.768 C2128.9104,996.6528 2136.7728,986.4216 2139.4296,983.8728 C2146.2984,977.4792 2151.432,973.1232 2152.3752,965.7504 C2153.304,957.9456 2146.4712,939.4056 2144.592,937.5336 C2143.4832,936.3528 2143.1232,933.3936 2141.964,932.3352 C2137.3416,927.7776 2130.3432,926.4816 2126.592,922.0104 C2113.2864,906.4584 2121.372,885.8952 2141.964,888.516 C2149.524,894.1536 2133.5976,911.8728 2149.7832,911.7288 C2161.1088,911.052 2154.7224,892.692 2160,886.0176 C2180.7504,877.1688 2199.3624,872.4672 2211.588,860.2704 C2223.3384,848.4264 2223.1944,843.948 2229.6312,826.74 C2235.6432,810.792 2238.2856,805.968 2234.6928,790.668 C2233.6776,785.9952 2233.3392,777.852 2232.1584,775.1304 C2229.9768,769.4208 2222.2872,763.9344 2219.2272,759.6864 C2216.8728,756.3096 2215.62,751.5792 2214.1584,749.3976 C2210.1408,743.6304 2209.1976,746.3808 2208.96,739.1664 C2208.7512,728.8128 2226.852,720.3816 2219.2272,713.3976 C2208.6,705.9528 2193.7248,718.488 2188.4112,705.636 C2188.4112,692.7408 2196.576,688.0464 2203.8552,682.416 C2212.164,691.7904 2218.248,693.3096 2234.6928,690.1992 C2240.46,702.468 2251.2312,711.36 2258.0136,723.6504 C2261.5272,730.2528 2259.9432,740.0232 2268.3384,744.2712 C2275.9272,743.3424 2281.356,740.1816 2286.2664,736.5384 C2289.564,708.4368 2270.2968,702.7632 2263.0536,685.008 C2271.1752,674.9712 2271.8016,657.7272 2278.512,646.3512 C2284.74,642.168 2295.1368,642.2472 2301.7608,638.5824 C2308.8456,629.244 2315.2104,614.7432 2319.8328,600.012 C2323.8,586.8576 2330.244,564.84 2330.0496,553.5864 C2330.0136,545.2344 2320.4016,537.7536 2327.5656,530.3736 C2330.604,543.7008 2334.492,556.128 2345.6016,561.2904 C2365.3152,534.1392 2328.0624,514.6416 2324.8728,486.648 C2298.4632,479.304 2266.1064,487.08 2260.4832,465.9696 C2260.0368,463.824 2264.5872,443.9448 2265.66,440.1792 C2265.9624,439.272 2270.5128,436.428 2270.808,435.06 C2273.0832,426.4848 2272.0176,409.8096 2276.0208,404.1144 C2283.732,392.9184 2297.232,395.5464 2309.4288,391.2552 C2318.7744,388.0656 2323.0224,380.2752 2330.0568,380.9664 C2341.2888,381.4848 2347.4448,390.024 2358.4824,383.5944 C2368.0728,372.7512 2352.7152,336.888 2371.392,329.4432 C2384.2656,326.8512 2383.92,337.4568 2394.4968,337.1688 C2401.2144,335.9376 2403.1728,323.0064 2409.9624,329.4432 C2404.2312,345.6 2408.1552,363.7656 2404.8144,380.9664 C2403.3168,389.0016 2398.0536,396.3816 2397.1032,404.1144 C2392.9992,437.76 2406.7224,451.044 2417.688,468.5904 C2425.4784,481.068 2431.8288,497.1096 2443.4568,502.0704 C2456.3304,492.048 2450.808,468.0648 2453.7816,453.1464 C2454.5808,449.1432 2458.908,446.5728 2458.908,442.7928 C2459.052,438.876 2454.6528,431.8344 2453.7816,424.7712 C2452.7952,417.0456 2455.0128,407.8368 2453.7816,404.1144 C2450.9088,395.7984 2439.2448,390.096 2435.724,380.9664 C2431.26,369.5976 2436.9624,361.584 2430.6048,352.5984 C2442.168,341.7768 2454.3648,331.7544 2474.46,329.4432 C2478.3336,312.768 2482.7184,296.5968 2489.832,283.0896 C2494.4904,276.588 2507.3712,278.388 2507.94,267.5376 C2504.7864,248.0688 2484.072,245.6784 2479.5648,228.996 C2478.7152,225.7272 2482.1568,218.1024 2482.1208,213.516 C2482.1208,206.4456 2478.708,203.5656 2479.5648,195.4656 C2488.4424,184.032 2503.548,194.1192 2518.2144,187.8336 C2524.3704,176.976 2514.0888,172.6632 2512.9944,162.0504 C2514.2832,148.6152 2510.5392,140.4072 2505.3192,133.6536 L2505.3192,133.6536 Z M1469.52,401.5872 C1478.0448,404.2656 1490.616,402.8904 1497.8736,406.764 C1498.0464,420.66 1481.6952,418.104 1469.52,419.6376 C1465.8264,416.2176 1465.8264,405.1512 1469.52,401.5872 L1469.52,401.5872 Z M1472.112,654.0264 C1485.324,651.996 1482.588,665.9568 1492.6104,667.0512 C1504.4832,667.548 1504.4832,656.4384 1508.148,648.9216 L1515.9456,648.9216 C1514.5056,677.0232 1544.976,673.1712 1551.9888,692.7624 C1543.0608,714.3984 1523.592,698.0976 1508.148,695.3328 C1490.6088,692.172 1477.3248,701.1864 1456.668,703.08 C1441.7136,689.0832 1455.5592,659.6712 1472.112,654.0264 L1472.112,654.0264 Z M1348.416,538.1208 C1347.5592,520.8048 1353.7728,513.4896 1358.7408,496.9944 C1359.1008,485.496 1348.2432,481.3848 1348.416,471.1752 C1348.632,456.4584 1360.4184,450.3168 1371.5928,442.8072 C1373.7384,432.1296 1373.544,419.0184 1381.9392,414.4536 C1386.1368,413.7912 1386.4032,416.916 1389.6288,417.06 C1392.5376,436.3128 1376.4168,436.4424 1371.5928,447.9696 C1370.952,472.788 1377.504,490.212 1394.8272,497.0016 C1393.4736,520.2864 1372.5288,529.5528 1381.9392,556.2216 C1374.3288,561.7368 1367.4528,555.2712 1358.7408,556.2216 C1346.0256,557.6472 1332.5472,571.4856 1322.6328,558.8064 C1325.5992,546.228 1342.296,547.4592 1348.416,538.1208 L1348.416,538.1208 Z M1461.7656,800.928 C1450.224,800.4096 1441.2672,796.2048 1430.8704,793.2744 C1420.056,790.1136 1407.1104,784.5768 1402.5096,785.4912 C1391.076,787.7088 1391.0184,798.3792 1381.9392,806.1336 C1372.0464,804.9744 1363.1328,802.4112 1356.1344,795.8088 C1347.9192,787.8456 1328.544,787.5216 1314.9,777.8232 C1316.4192,763.452 1313.7192,753.1992 1307.2608,746.8416 C1285.6464,748.0368 1268.6112,746.3952 1250.5104,749.412 C1231.4232,752.6808 1213.3656,767.9088 1193.796,759.7008 C1202.6664,748.7352 1215.9864,752.256 1224.684,741.6432 C1228.6944,736.9992 1227.024,727.0416 1229.8968,721.1304 C1233.3816,714.2112 1240.8624,711.1584 1245.348,705.6504 C1250.8416,698.8968 1251.5544,691.308 1258.272,687.6288 C1267.9704,682.6752 1287.036,687.1968 1291.788,677.2752 C1310.9256,687.3408 1321.128,706.3488 1343.268,713.4192 C1347.912,718.1856 1350.1944,725.3064 1356.12,728.8344 C1384.5816,705.9744 1336.1256,694.9008 1330.3584,674.784 C1330.7832,671.724 1335.0456,672.5304 1338.084,672.084 C1346.0184,684.7992 1364.0112,687.4992 1374.1776,697.8888 C1374.12,703.9368 1378.5696,705.5424 1376.712,713.4192 C1385.748,717.4584 1391.8248,748.9224 1405.08,749.4192 C1426.8456,750.2184 1415.2824,730.3752 1417.9392,715.8672 C1424.7216,715.6368 1426.9752,712.0152 1430.8632,715.8672 C1433.2608,718.4664 1431.7992,725.9544 1433.412,728.8344 C1435.3704,732.06 1436.6376,735.2928 1438.6752,739.188 C1442.5704,746.9208 1445.868,747.7272 1451.5272,754.6176 C1478.0808,750.5136 1491.7608,763.4592 1513.3464,757.2024 C1517.688,772.164 1510.5816,787.8456 1503,798.3792 C1487.7936,795.2184 1476.6624,801.7416 1461.7656,800.928 L1461.7656,800.928 Z M1582.8768,950.4144 C1576.6992,950.3352 1572.0552,948.8736 1567.4256,945.2808 C1558.7712,938.5704 1558.7712,929.376 1551.9816,919.4976 C1549.152,915.5376 1543.248,912.3408 1541.7216,909.1728 C1539.0432,903.8376 1539.2376,894.852 1536.4584,888.5376 C1533.3336,881.496 1527.4224,877.1832 1523.5848,870.5232 C1522.4976,868.6008 1524.6072,864.8208 1523.5848,862.7184 C1521.8568,859.2408 1510.3008,852.1776 1513.3536,839.6064 L1521.0864,839.6064 C1526.3496,845.748 1528.4376,852.6888 1533.924,860.2848 C1538.2224,866.268 1546.2072,871.2504 1549.368,878.2704 C1551.1176,882.1728 1549.728,887.3064 1551.9816,891.1224 C1563.1776,909.8568 1587.528,925.6608 1582.8768,950.4144 L1582.8768,950.4144 Z M1598.2632,659.3328 C1607.7744,650.6928 1614.06,638.9568 1634.436,641.1744 C1641.5424,653.2848 1625.6304,653.7024 1626.6312,667.0512 C1626.3648,677.0304 1637.6832,682.0128 1642.0968,690.228 C1645.0704,695.5632 1645.0704,703.008 1647.288,708.192 C1651.9896,719.5608 1663.9128,729.9576 1657.548,741.6504 C1645.3512,749.34 1631.4912,739.4688 1624.0968,733.9968 C1631.8512,692.7624 1601.3736,689.7024 1598.2632,659.3328 L1598.2632,659.3328 Z M1667.9376,862.7184 C1654.956,862.6824 1640.4408,835.2864 1631.8512,826.7544 C1628.892,822.9456 1628.892,820.2168 1631.8512,816.4296 L1639.512,816.4296 C1648.1448,834.408 1668.8088,840.3768 1688.544,847.2672 C1681.6248,856.6128 1676.3328,862.8984 1667.9376,862.7184 L1667.9376,862.7184 Z"></path>
                                <path d="M923.292,1115.244 C916.1712,1109.9808 907.2648,1101.6144 902.7,1099.8 C891.0216,1095.336 875.916,1098.3168 863.9928,1094.724 C858.6504,1093.0104 854.172,1086.8328 848.628,1084.4424 C841.7592,1081.3824 835.2072,1083.42 830.556,1081.836 C814.2336,1076.0112 815.6808,1065.96 809.9352,1053.468 C807.1632,1047.4632 803.2752,1039.14 799.5816,1035.4104 C798.6744,1034.388 788.5512,1027.1952 784.1304,1025.1576 C775.224,1021.0896 769.0608,1023.7176 758.3688,1022.5512 C747.2952,1021.4352 734.724,1004.1192 727.5312,999.3744 C721.1736,995.1624 715.7448,985.392 712.0872,983.8944 C699.5664,979.1064 681.2424,985.644 670.8312,983.8944 C659.2824,982.0008 655.6104,974.8944 647.604,973.5912 C627.372,970.1928 613.584,974.3688 606.3552,978.696 C599.004,983.2896 595.7136,992.6064 583.2504,996.7896 C578.9088,998.2152 573.2856,995.1624 570.3048,999.3744 L568.3104,1001.3328 C567.072,1001.0304 565.7832,1000.9152 564.4872,1001.2608 L562.5936,999.3672 C544.1328,996.6672 534.7944,991.548 531.684,976.1904 C529.7184,966.3552 540.072,955.224 534.2904,945.2736 C529.02,934.1496 505.1808,941.5944 498.1608,932.3496 C492.048,918.6624 509.8536,908.5392 505.98,888.5304 C479.268,877.8168 479.268,901.872 467.2656,909.1656 C438.6096,926.6328 416.6496,898.7832 420.8976,865.44 C421.632,859.1544 429.9408,828.36 431.1648,826.7472 C435.492,821.016 457.8624,811.5696 462.168,811.2456 C469.08,810.9792 477.1872,817.4448 485.2584,816.4296 C492.1344,813.924 497.1024,807.5016 505.9872,806.1264 C519.84,804.0168 536.0184,810.7992 544.5504,816.4296 C547.3584,831.6216 547.3584,849.7512 565.2144,849.888 C579.4992,832.8888 558.684,816.5808 565.2144,795.8016 C566.5608,791.3736 571.392,788.94 575.4672,785.4768 C583.9632,778.2984 590.5584,773.316 598.716,767.4624 C603.756,763.7904 609.768,762.192 611.4816,759.6936 C617.3352,751.5072 615.2472,739.7424 619.2648,731.3472 C621.7272,726.2208 628.02,721.404 632.1384,715.8528 C642.816,701.9784 647.6544,696.1248 665.5752,692.748 C670.3344,677.9952 676.9296,663.0696 693.9432,661.8312 C702.5472,661.176 706.9464,666.1656 717.2064,667.0368 C728.9712,659.0016 748.0224,658.3032 753.1488,643.8528 C740.0088,641.4264 733.9752,641.232 727.524,630.9288 C725.436,627.66 728.8776,618.9264 727.524,612.8784 C725.7168,605.2608 713.5056,604.5912 722.3112,600.012 C735.4656,602.9064 742.32,605.6424 753.1416,602.5176 C762.1848,600.0912 774.9648,592.7184 781.6104,597.3552 C779.6592,608.3928 769.5504,611.2008 771.264,625.7664 C783.3312,631.6416 796.104,636.984 815.0472,636.12 C823.7808,616.9824 804.816,608.1048 799.5672,594.7488 C806.94,578.3616 805.4424,564.696 799.5672,556.2 C797.7888,553.5864 795.888,547.596 794.4624,545.8392 C788.3136,538.8408 778.4928,537.1272 773.8992,527.9184 C769.1256,518.328 770.5728,507.6 768.672,499.5072 C766.7784,491.0472 765.4968,483.7104 760.9248,473.724 C742.68,470.8512 747.3528,491.1192 727.5168,486.6552 C720.216,478.7928 723.6792,470.1888 724.8384,458.28 C712.6056,442.296 696.8376,418.5 668.2176,427.3344 C661.2336,436.608 666.2016,447.3864 663.0912,458.28 C660.7944,466.4304 653.5584,472.5432 652.7808,481.5288 C651.888,490.3776 658.1952,501.3288 655.2864,509.832 C651.6792,520.7976 633.6432,523.0152 626.9832,535.5432 C619.2504,550.0656 632.0736,558.4248 616.6584,569.0232 C602.424,566.2368 613.2096,538.1928 606.3336,527.9184 C603.8136,523.1088 597.816,524.9736 593.4816,522.7128 C580.896,516.0888 570.6792,501.3216 559.9872,494.316 C558.2304,493.1496 556.5672,492.7752 554.8392,491.688 C544.8024,485.8416 542.8584,481.8168 539.388,471.168 C530.388,443.6712 551.34,430.9488 567.6984,417.0456 C580.4568,406.2528 593.6112,393.6168 611.46,393.9336 C618.3936,396.3816 617.8896,406.3968 624.384,409.3848 C636.7968,405.6048 644.8176,404.4672 655.2792,404.1216 C657.5472,387.4032 639.9072,379.3608 645.0264,368.1576 C660.78,360.5688 671.1768,355.3056 675.8856,339.7536 C679.5432,328.0608 684.5256,316.3968 691.4016,308.8368 C709.02,305.748 713.6352,315.756 717.1848,326.8584 C717.0336,337.9896 703.5336,335.5704 706.7736,350.1792 C718.1856,353.4768 725.4216,337.9896 730.0224,350.1792 C728.2944,368.1576 713.916,373.572 704.3328,383.6088 C694.1304,383.8248 681.6528,381.6144 683.6904,393.948 C682.6032,407.7864 705.276,398.052 712.0656,404.1288 C717.5808,409.968 718.0272,423.3384 724.824,429.948 C729.684,434.5776 742.4424,440.5176 748.0728,440.1936 C752.8392,440.0568 766.5048,431.9784 768.6504,429.948 C780.2568,419.4864 770.0256,403.3944 766.0368,388.6848 C775.7496,388.4328 773.928,399.8088 786.7296,396.468 C797.976,389.448 804.4776,385.6464 804.7656,375.8256 C804.8952,369.1872 796.6944,363.636 791.892,357.8112 C785.9952,350.8056 779.7384,346.3848 778.9968,339.7608 C780.0048,329.5944 784.6992,324.4752 784.1016,316.5768 C782.7336,296.928 758.9808,286.92 750.6072,267.5448 C747.0792,259.2216 745.056,251.3088 745.5528,239.328 C737.7552,227.916 720.576,232.092 706.7664,229.0032 C701.568,227.7648 697.5936,224.892 693.9144,223.8048 C661.716,213.48 642.3624,249.696 645.0192,283.0896 C649.7208,290.5632 658.6848,294.0408 657.864,306.2664 C657.3816,313.7832 650.376,324.8136 639.9,324.3168 C636.3648,313.7832 623.916,304.236 621.7704,290.8872 C621.252,287.0496 624.0888,279.7488 624.3696,275.3568 C625.0896,264.3048 622.7208,252.324 626.9616,241.8552 C640.9152,232.596 668.088,236.4912 663.0696,208.3248 C652.7592,199.3248 637.9488,200.1672 626.9616,208.3248 C615.0888,189.5256 601.8264,198.828 590.8536,208.3248 C578.304,219.3408 576.2664,221.4144 580.6152,234.1224 C581.3856,236.4912 581.3856,241.4664 583.2072,244.4832 C586.5336,250.4304 595.476,251.7336 596.0448,259.9128 C596.4048,265.0032 594.5256,267.2208 593.46,270.2376 C588.4992,284.8104 581.2632,284.8104 567.6768,290.8944 C562.7592,299.772 566.2296,309.6792 554.8176,313.9992 C542.2464,318.6792 523.3392,310.2192 523.908,295.9128 C543.0672,296.3088 557.856,285.9696 559.9656,272.772 C560.7648,268.056 556.3944,266.5944 554.8176,262.5336 C549.9792,249.552 553.9608,231.804 557.3376,223.8048 C561.5352,214.3584 573.7464,209.376 572.8176,195.4656 C556.5456,185.3784 547.2432,207.0864 531.6408,205.7184 C514.0008,204.3072 508.176,188.856 505.944,164.4768 C489.3696,151.3728 471.2904,144.504 459.432,156.852 C446.7312,170.064 417.7944,191.8008 428.5944,210.9384 C436.5432,218.5992 453.9456,208.3176 459.432,213.5088 C455.3064,223.2864 461.2536,233.9064 459.432,241.848 C458.8416,244.7208 453.2832,248.94 451.7856,252.1728 C449.3016,257.2272 452.3544,266.7816 443.9952,265.104 C431.9064,264.3048 428.8176,254.4552 423.3744,247.0536 C405.3384,244.4832 393.804,235.4256 384.7536,223.8048 C359.5392,223.596 337.248,226.1664 315.2376,229.0032 C309.8088,224.0208 305.4168,218.1816 302.292,210.9456 C293.0472,210.0024 290.8152,200.0592 284.2416,195.4728 C278.9568,191.808 268.6536,190.0656 261.0576,185.2344 C259.992,184.4352 259.6824,180.9864 258.4584,179.9712 C256.3848,178.3584 252.7416,178.884 250.7256,177.4224 C249.4944,176.6448 249.4944,173.2464 248.22,172.3104 C245.8296,170.5248 242.5248,171.5832 240.4944,169.7328 C235.2312,164.9448 233.9784,158.2848 230.22,154.2672 C224.2944,148.1184 220.8312,146.2032 212.184,144.0216 C197.1504,140.1264 184.5072,146.304 176.0616,149.1408 C171.1512,150.7968 164.4912,149.9256 160.6032,151.6896 C150.7104,156.0672 143.352,165.636 132.2496,169.74 C123.2136,173.0376 112.8024,167.9184 106.5168,177.4296 C103.86,196.4304 114.4656,215.784 106.5168,231.5232 C97.9992,232.5456 93.9096,221.5008 83.268,221.2848 C81.0288,221.22 74.2464,224.7984 70.3584,226.3896 C54.5112,233.0568 55.3968,243.0648 57.5568,259.9272 C62.1792,269.964 83.556,263.1168 85.8528,275.3784 C81.3384,293.0184 61.4088,283.1472 49.86,288.3024 C47.952,289.1016 43.632,294.948 39.5064,298.5336 C34.8984,302.6016 28.3248,306.072 26.5968,308.8584 C22.1328,316.4544 18.0936,333.4176 18.936,339.7752 C20.3832,351.468 36.9432,354.5208 34.3368,373.3056 C40.9104,377.9856 52.0128,377.9856 52.3512,388.6992 C44.2224,412.2864 14.0328,413.9496 0.8928,432.5184 C29.5056,432.8064 41.3352,416.4336 62.712,409.4136 C72.9792,406.7856 70.4232,417.0024 80.784,414.468 C96.012,406.5696 88.6608,380.0232 103.8744,375.84 C118.0944,386.7912 144,378.288 155.412,370.6128 C160.6248,373.8744 165.7656,378.9288 173.5128,383.6304 C179.4744,387.108 188.928,389.1096 194.1336,393.9696 C197.028,396.6336 202.2408,409.6368 204.4584,411.9912 C214.4952,422.3448 211.3344,434.0448 214.6392,450.576 C215.388,453.7728 216.0288,456.3432 217.26,460.8792 C218.4192,464.9832 219.1176,471.7224 219.8304,473.7528 C222.6168,480.3264 230.5224,485.5248 232.6968,491.7168 C233.9928,495.432 231.6888,502.5528 232.6968,507.2688 C233.6544,511.0848 237.348,515.7 237.924,517.5216 C242.4384,532.8 237.7728,541.2672 235.3176,553.6224 C239.4216,564.732 249.1704,570.5856 250.7472,582.0336 C251.4312,586.1232 248.7672,590.2344 248.2416,594.7848 C246.492,610.1784 245.9016,611.8272 243.1224,620.6472 C238.6944,634.4856 232.5672,643.68 230.2416,654.0552 C226.7136,669.4704 226.944,696.5856 230.2416,708.2136 C232.7832,717.6888 235.7496,732.78 237.924,739.2168 C243.1728,754.3584 255.456,754.5312 263.6856,767.5056 C267.4368,773.46 267.3432,783.756 271.4112,793.3032 C276.4656,804.8088 289.0008,812.0016 284.256,829.3752 C295.668,837.7128 297.468,855.6264 312.6456,860.3208 C315.0936,848.3256 302.6592,837.8064 309.9456,829.3752 C319.6224,832.0176 319.3416,842.2704 322.8768,847.3032 C324.4824,849.5352 329.112,850.356 330.6816,852.5664 C332.4096,854.8272 331.5024,857.8008 333.216,860.3136 C338.2704,867.5496 346.8096,871.56 348.6744,880.8624 C349.6752,885.6648 346.0752,895.788 348.6744,901.4688 C355.1976,915.84 398.7072,937.8288 415.6776,940.1832 C423.3888,941.2056 434.1888,937.8576 441.3888,940.1832 C448.1712,942.2136 453.744,953.0352 464.7096,958.1616 C474.5304,962.8704 489.2544,961.7544 495.5472,965.7936 C507.3336,973.6128 509.256,988.2 516.204,994.1976 C520.1712,997.7832 526.2552,999.1728 531.6552,1001.9664 C545.9328,1009.3392 552.744,1015.7688 565.1856,1001.9664 L567.6912,1001.9664 C573.2568,1012.7448 582.4944,1020.6792 580.6296,1038.0384 C579.5496,1046.9088 573.0984,1051.0704 567.6912,1058.7096 C563.724,1064.232 554.94,1071.684 552.2328,1079.2656 C548.2656,1090.6704 553.7592,1094.4072 552.2328,1105.0056 C551.1456,1112.3784 546.0336,1117.8648 547.0848,1123.0272 C548.4816,1130.0112 561.5496,1141.632 567.6912,1151.4024 C574.6392,1162.5264 581.472,1177.596 585.7416,1184.8968 C589.5792,1191.5352 593.28,1202.328 596.0664,1205.4816 C610.956,1222.5168 634.7592,1223.0352 642.4344,1244.088 C652.7736,1272.6432 641.3472,1327.6008 642.4344,1354.9536 C642.8808,1364.4648 645.6672,1374.1632 645.0192,1383.2568 C644.076,1395.7344 637.8984,1406.9376 637.236,1419.3648 C637.092,1424.0448 639.2664,1430.3232 639.9,1437.4224 C640.5552,1445.6592 638.7624,1455.3432 639.9,1463.1336 C640.7712,1470.132 644.544,1474.308 645.0192,1481.256 C646.3944,1505.0088 640.3968,1530.2952 645.0192,1550.772 C646.9992,1559.6136 654.0408,1568.6424 657.864,1576.5768 C662.436,1585.6128 665.9856,1594.3248 670.8024,1602.288 C688.5,1608.3576 706.4856,1633.6872 730.0224,1617.7176 C732.0384,1608.8616 725.5656,1603.9152 722.2968,1599.66 C717.5808,1593.504 712.8504,1591.6104 709.3872,1584.2304 C707.1192,1579.392 703.6632,1572.5376 704.3328,1563.6816 C704.952,1551.5712 718.0272,1543.0032 717.1848,1530.1512 C716.4432,1520.4096 705.9888,1515.9024 706.7736,1506.9744 C715.248,1493.8992 723.312,1480.5216 722.2968,1458.0072 C734.796,1456.776 733.0608,1441.2528 740.3616,1434.8304 C750.9168,1430.8632 763.9632,1429.344 771.2568,1421.964 C774.3096,1414.7352 774.1656,1404.1224 773.8848,1393.5672 C780.012,1390.3704 789.4656,1390.2624 794.448,1385.8632 C803.9088,1378.3896 803.9088,1366.6536 809.9064,1357.5672 C813.0672,1352.6712 819.72,1349.172 822.7944,1344.6 C826.4232,1339.3656 831.2616,1331.7048 833.1552,1326.6504 C838.1304,1312.6464 831.564,1306.1376 838.2024,1295.7048 C840.6504,1291.8096 846.1368,1291.5648 848.592,1290.5424 C849.3624,1290.1896 850.1688,1285.9704 851.1336,1285.3512 C853.3656,1283.9688 856.98,1283.832 858.8448,1282.8096 C861.8688,1281.132 863.5392,1278.9144 866.5776,1277.604 C871.2,1275.7896 880.5096,1277.4024 887.148,1272.4848 C900.9504,1262.4336 908.3736,1233.7704 910.404,1210.6656 C910.836,1205.6112 908.5104,1195.6608 910.404,1189.9512 C911.9808,1185.1632 920.8728,1175.9328 925.8408,1169.4312 C932.1048,1160.892 939.2832,1156.3632 941.2344,1146.1824 C945.4032,1125.6048 935.5104,1124.4384 923.292,1115.244 L923.292,1115.244 Z"></path>
                                <path d="M2348.064,576.7776 C2347.6968,582.4008 2350.2024,584.9352 2355.84,584.5824 C2356.2792,578.9592 2353.7232,576.3312 2348.064,576.7776 L2348.064,576.7776 Z"></path>
                                <path d="M2355.84,648.9216 C2371.3776,643.032 2388.7656,638.9568 2391.9192,620.6184 C2380.7736,615.4848 2370.9312,608.9976 2355.84,607.7592 C2356.56,622.548 2344.5216,639.0288 2355.84,648.9216 L2355.84,648.9216 Z"></path>
                                <path d="M2345.5944,708.1848 C2340.9,713.9736 2338.0416,720.0432 2332.6056,723.6648 C2319.2352,729.216 2302.7688,737.928 2299.1544,752.0328 C2296.5624,762.192 2292.8616,774.1152 2309.4144,777.816 C2315.6856,772.8696 2314.116,760.1256 2322.3456,757.1952 C2333.3256,754.7112 2342.0088,748.728 2350.7208,744.2856 C2360.7576,739.1808 2370.0744,735.0768 2379.06,728.8272 C2377.4472,699.4728 2386.7712,659.3328 2358.4752,656.6544 C2354.796,669.0096 2361.5496,681.8616 2358.4752,692.7624 C2356.5096,699.3288 2349.3096,703.5048 2345.5944,708.1848 L2345.5944,708.1848 Z"></path>
                                <path d="M1294.272,708.1848 C1290.4416,712.1088 1289.7576,725.8464 1299.4344,723.6648 C1303.4376,719.7408 1304.064,705.9744 1294.272,708.1848 L1294.272,708.1848 Z"></path>
                                <path d="M1335.636,746.8488 C1344.3696,747.972 1350.2016,746.0496 1348.416,736.56 C1340.9136,736.812 1333.9008,737.4744 1335.636,746.8488 L1335.636,746.8488 Z"></path>
                                <path d="M2234.6856,849.8952 C2230.992,853.632 2230.992,866.8584 2234.6856,870.5232 C2245.6728,870.192 2246.0832,857.8728 2242.476,849.8952 L2234.6856,849.8952 L2234.6856,849.8952 Z"></path>
                                <path d="M606.3552,901.4472 C603.8352,887.6448 589.608,885.5712 575.4672,883.5048 L575.4672,885.3408 C571.968,883.8936 568.5912,882.3456 565.2144,881.2368 L565.2144,878.2776 C565.5672,874.0224 549.3168,874.0224 549.756,878.2776 C555.0912,879.7176 557.0424,884.7072 565.2144,883.512 L565.2144,881.3664 L575.4672,885.42 L575.4672,888.5448 C580.4496,897.3432 592.344,910.1592 606.3552,901.4472 L606.3552,901.4472 Z"></path>
                                <path d="M621.7992,916.9128 C631.9224,924.2856 649.2456,921.8952 655.2936,911.7504 C652.2984,899.2512 617.6736,894.6504 621.7992,916.9128 L621.7992,916.9128 Z"></path>
                                <path d="M2252.8008,911.7504 C2225.1528,910.836 2239.6752,954.2088 2247.6384,963.3384 C2255.0616,963.5472 2264.5152,961.8768 2268.3312,965.772 C2258.3448,974.592 2266.9776,987.6816 2268.3312,996.7896 C2269.332,1004.0544 2267.3808,1010.7 2268.3312,1012.2408 C2271.2184,1017.8928 2284.812,1026.252 2288.8656,1025.1648 C2304.6048,1021.1688 2300.1696,994.9608 2286.2664,986.5584 C2286.684,980.172 2286.684,974.0304 2283.7248,971.0496 C2275.4232,962.1216 2262.7296,956.7072 2258.0136,942.6816 C2254.6008,932.9256 2261.9016,920.4336 2252.8008,911.7504 L2252.8008,911.7504 Z"></path>
                                <path d="M2190.924,1151.388 C2191.8528,1140.5232 2179.872,1134.3168 2172.9456,1133.4024 C2165.652,1132.3152 2159.136,1137.2976 2152.3752,1136.0304 C2148.696,1135.116 2142.252,1131.9624 2139.4296,1130.724 C2134.7568,1128.8664 2127.7512,1128.348 2126.592,1123.0128 C2126.664,1114.5456 2130.9336,1110.1968 2129.112,1099.8 C2119.9968,1091.2896 2115.1152,1089.1152 2111.112,1079.2512 C2105.8416,1066.464 2108.3184,1039.5144 2103.4224,1030.356 C2098.9584,1022.004 2085.6528,1018.9512 2080.1736,1012.2336 C2077.2576,1008.7488 2076.6384,1001.8368 2075.0472,999.3744 C2071.9008,994.392 2070.2808,994.608 2067.3,989.1216 C2066.6376,987.0192 2065.1544,985.9968 2062.1664,986.5512 C2050.2576,1011.7152 2087.0064,1020.6216 2075.0472,1045.836 C2061.6912,1042.8552 2059.0848,1029.0528 2041.5456,1030.356 C2036.0304,1043.7264 2052.6408,1051.4664 2059.5888,1061.1936 C2060.3736,1062.3528 2058.9264,1065.0888 2059.5888,1066.32 C2059.8768,1067.1912 2064.0672,1067.976 2064.6936,1068.8184 C2065.4928,1070.0568 2064.1248,1072.8288 2064.6936,1074.0888 C2065.1544,1074.996 2069.2656,1075.6152 2069.8344,1076.7096 C2073.7512,1083.4272 2077.128,1096.7976 2080.1808,1099.8 C2088.8208,1108.8576 2100.1104,1120.1904 2108.5488,1125.6048 C2111.8536,1127.8512 2117.7072,1128.1392 2121.48,1130.724 C2128.3344,1135.8 2130.5016,1143.6552 2136.9096,1146.1824 C2139.8184,1147.3776 2148.1272,1144.8792 2154.888,1146.1824 C2159.6184,1147.1688 2163.8736,1150.9488 2167.7616,1151.388 C2176.0992,1152.3312 2182.6368,1150.6464 2190.924,1151.388 L2190.924,1151.388 Z"></path>
                                <path d="M2211.5808,1019.9664 C2193.9192,1037.5416 2177.1216,1055.9952 2152.368,1066.32 C2143.6704,1097.892 2178.6264,1117.98 2208.9528,1110.1968 C2214.54,1096.8048 2226.9456,1081.8432 2229.6168,1068.8184 C2230.9344,1062.36 2226.5208,1055.7144 2226.9888,1048.3344 C2227.5216,1040.0184 2234.6136,1036.2816 2232.1512,1027.6632 C2226.2472,1024.2144 2223.6192,1017.3528 2211.5808,1019.9664 L2211.5808,1019.9664 Z"></path>
                            </g>
                        </g>
                    </g>
                    <g id="colorangle">
                        <g id="Group">
                            <path d="M180.8424,315.2664 L69.7968,499.7232 L125.8776,499.7232 C139.1544,499.7232 155.6424,490.4136 162.4896,478.98 L209.736,400.3704 C215.3088,388.836 215.1216,372.0744 208.7424,361.4472 L180.8424,315.2664 L180.8424,315.2664 Z" id="Shape" fill="url(#radialGradient-3)"></path>
                            <path d="M130.0824,231.2424 C136.9296,242.6328 136.9296,261.2952 130.0824,272.7288 L5.364,481.248 C0.5472,491.5584 5.5512,499.7232 17.928,499.7232 L69.7968,499.7232 L180.8424,315.2664 L130.0824,231.2424 L130.0824,231.2424 Z" id="Shape" fill="url(#radialGradient-4)"></path>
                            <path d="M17.928,4.2048 C4.6008,4.2048 -0.684,13.5576 6.1632,24.948 L208.7424,361.4472 C215.1216,372.0816 215.3088,388.8432 209.736,400.3704 L258.984,318.3984 L69.8328,4.1976 L17.928,4.1976 L17.928,4.2048 Z" id="Shape" fill="url(#radialGradient-5)"></path>
                            <path d="M286.4016,231.2424 L162.4896,24.948 C155.6424,13.5576 139.1544,4.2048 125.8776,4.2048 L69.8256,4.2048 L258.9768,318.4056 L286.4016,272.7288 C293.256,261.2952 293.256,242.6328 286.4016,231.2424 L286.4016,231.2424 Z" id="Shape" fill="url(#radialGradient-6)"></path>
                            <path d="M208.7424,361.4472 L130.0824,231.2424 C136.9296,242.6328 136.9296,261.2952 130.0824,272.7288 L102.3912,318.8376 L209.7288,400.3704 C215.3088,388.8432 215.1216,372.0816 208.7424,361.4472 L208.7424,361.4472 Z" id="Shape" fill="url(#linearGradient-7)"></path>
                        </g>
                        <path d="M286.4016,231.2424 L162.4896,24.948 C155.6424,13.5576 139.1544,4.2048 125.8776,4.2048 L69.8256,4.2048 L17.928,4.2048 C4.6008,4.2048 -0.684,13.5576 6.1632,24.948 L130.0824,231.2424 C136.9296,242.6328 136.9296,261.2952 130.0824,272.7288 L5.364,481.248 C0.5472,491.5584 5.5512,499.7232 17.928,499.7232 L69.7968,499.7232 L125.8776,499.7232 C139.1544,499.7232 155.6424,490.4136 162.4896,478.98 L258.9768,318.3984 L286.4016,272.7216 C293.256,261.2952 293.256,242.6328 286.4016,231.2424 L286.4016,231.2424 Z" id="Shape" fill="url(#radialGradient-8)"></path>
                    </g>
                </g>
                <text id="GDG-New-Delhi" font-family="ProductSans-Regular, Product Sans" font-size="356.5" font-weight="normal" fill="#4A4A4A">
                    <tspan x="422" y="378">GDG New Delhi</tspan>
                </text>
            </g>
        </g>
    </g>
</svg>