<?xml version="1.0" encoding="UTF-8" standalone="no"?>
<svg width="1076px" height="1076px" viewBox="0 0 1076 1076" version="1.1" xmlns="http://www.w3.org/2000/svg" xmlns:xlink="http://www.w3.org/1999/xlink">
    <!-- Generator: Sketch 3.7.2 (28276) - http://www.bohemiancoding.com/sketch -->
    <title>gdg_newdelhi_logo_bot</title>
    <desc>Created with Sketch.</desc>
    <defs>
        <radialGradient cx="6.59649984%" cy="2.14172508%" fx="6.59649984%" fy="2.14172508%" r="137.109246%" id="radialGradient-1">
            <stop stop-color="#577EC0" offset="0%"></stop>
            <stop stop-color="#557EBF" offset="100%"></stop>
        </radialGradient>
        <path d="M1080,958.512 C1080,1025.328 1025.328,1080 958.512,1080 L121.488,1080 C54.672,1080 0,1025.328 0,958.512 L0,121.488 C0,54.672 54.672,0 121.488,0 L958.512,0 C1025.328,0 1080,54.672 1080,121.488 L1080,958.512 L1080,958.512 Z" id="path-2"></path>
        <radialGradient cx="50.0006826%" cy="49.9997318%" fx="50.0006826%" fy="49.9997318%" r="64.1609104%" id="radialGradient-4">
            <stop stop-color="#DEDEDE" offset="0%"></stop>
            <stop stop-color="#D1D1D1" offset="100%"></stop>
        </radialGradient>
        <radialGradient cx="49.9993505%" cy="49.9988543%" fx="49.9993505%" fy="49.9988543%" r="61.3220108%" id="radialGradient-5">
            <stop stop-color="#DEDEDE" offset="0%"></stop>
            <stop stop-color="#D1D1D1" offset="100%"></stop>
        </radialGradient>
        <linearGradient x1="122.536784%" y1="50%" x2="-2.69925607%" y2="50%" id="linearGradient-6">
            <stop stop-color="#231F20" stop-opacity="0.2" offset="0%"></stop>
            <stop stop-color="#F2F2F2" stop-opacity="0.25" offset="100%"></stop>
        </linearGradient>
        <radialGradient cx="50.0001888%" cy="49.9998547%" fx="50.0001888%" fy="49.9998547%" r="70.2900058%" id="radialGradient-7">
            <stop stop-color="#FFFFFF" stop-opacity="0.1" offset="0%"></stop>
            <stop stop-color="#FFFFFF" stop-opacity="0.091" offset="8.96%"></stop>
            <stop stop-color="#FFFFFF" stop-opacity="0" offset="100%"></stop>
        </radialGradient>
    </defs>
    <g id="branding_svg" stroke="none" stroke-width="1" fill="none" fill-rule="evenodd">
        <g id="logos" transform="translate(-2695.000000, -794.000000)">
            <g id="gdg_newdelhi_logo_bot" transform="translate(2695.000000, 794.000000)">
                <g id="logo_square_offcolor">
                    <path d="M1075.152,954.216 C1075.152,1020.732 1020.732,1075.152 954.216,1075.152 L120.936,1075.152 C54.42,1075.152 0,1020.732 0,954.216 L0,120.936 C0,54.42 54.42,0 120.936,0 L954.204,0 C1020.72,0 1075.14,54.42 1075.14,120.936 L1075.14,954.216 L1075.152,954.216 Z" id="Shape" fill="url(#radialGradient-1)"></path>
                    <g id="backgroundImage-Clipped" transform="translate(9.000000, 8.000000)">
                        <mask id="mask-3" fill="white">
                            <use xlink:href="#path-2"></use>
                        </mask>
                        <g id="SVGID_A_-Copy"></g>
                    </g>
                    <g id="Group-2" transform="translate(179.000000, 47.000000)">
                        <path d="M370.5,763.470505 C493.2729,763.470505 592.8,637.967404 592.8,483.151483 C592.8,328.335563 493.2729,202.832462 370.5,202.832462 C247.7271,202.832462 148.2,328.335563 148.2,483.151483 C148.2,637.967404 247.7271,763.470505 370.5,763.470505 Z" id="Oval-1" fill="#F6B923"></path>
                        <path d="M454.26264,391.316237 C454.26264,371.664279 470.05392,355.74307 489.56844,355.74307 C509.03052,355.74307 524.8332,371.664279 524.8332,391.316237 C524.8332,410.961359 509.03052,426.893963 489.56844,426.893963 C470.05164,426.884847 454.26264,410.952243 454.26264,391.316237 L454.26264,391.316237 Z M344.44188,88.2754225 L344.15004,88.2754225 L344.15004,137.037258 L388.92696,137.037258 L388.92696,89.7020867 C404.3352,81.8941764 415.017,66.0048739 415.017,47.433169 C415.017,21.2290381 393.96804,0 367.9692,0 C341.97948,0 320.90772,21.2290381 320.90772,47.433169 C320.8986,64.9656424 330.42216,80.0755213 344.44188,88.2754225 L344.44188,88.2754225 Z M246.46344,426.884847 C265.93236,426.884847 281.73276,410.952243 281.73276,391.300284 C281.73276,371.655163 265.93008,355.731675 246.46344,355.731675 C226.94892,355.731675 211.15764,371.655163 211.15764,391.300284 C211.15764,410.952243 226.94892,426.884847 246.46344,426.884847 L246.46344,426.884847 Z M367.9692,980.245989 C421.08408,980.245989 466.23264,946.190647 483.37368,898.559204 L252.5556,898.559204 C269.70348,946.188368 314.83836,980.245989 367.9692,980.245989 L367.9692,980.245989 Z M0,835.719883 C0,816.892929 10.95996,800.768887 26.73072,793.111392 L26.73072,591.425275 C26.73072,551.645043 57.456,519.162222 96.30036,516.586934 L96.30036,418.988055 C96.30036,418.988055 105.75096,241.110822 252.55788,185.780861 C296.16516,169.353711 335.97852,162.710378 370.47492,161.461477 C404.9964,162.710378 444.81204,169.353711 488.376,185.771745 C635.21028,241.101706 644.67228,418.978939 644.67228,418.978939 L644.67228,516.568701 C683.48928,519.153106 714.2214,551.647322 714.2214,591.416159 L714.2214,793.113671 C729.98988,800.771166 740.95212,816.906603 740.95212,835.722162 C740.95212,861.908061 719.88264,883.139378 693.89748,883.139378 C667.91232,883.139378 646.84284,861.91034 646.84284,835.722162 C646.84284,816.895208 657.8142,800.771166 673.55076,793.113671 L673.55076,658.287059 C664.80468,662.797233 654.99156,665.520657 644.6814,666.222594 L644.6814,713.08373 C644.94816,716.871456 645.25596,720.627275 645.25596,724.50844 C645.25596,728.615227 644.99148,732.676435 644.6814,736.739921 L644.6814,737.824733 L644.63124,737.824733 C638.36352,815.896999 577.7634,878.437767 500.95476,886.968126 L501.0186,888.032427 L370.47492,888.032427 L239.91528,888.032427 L240.00192,886.968126 C163.19556,878.437767 102.6114,815.89472 96.34368,737.824733 L96.30036,737.824733 L96.30036,736.739921 C96.00852,732.676435 95.7258,728.615227 95.7258,724.50844 C95.7258,720.636391 96.01764,716.871456 96.30036,713.08373 L96.30036,666.229431 C85.95144,665.518378 76.1406,662.815465 67.39452,658.28478 L67.39452,793.134182 C83.15844,800.791678 94.12524,816.917998 94.12524,835.722162 C94.12524,861.930851 73.06032,883.150773 47.0592,883.150773 C21.08316,883.146215 0,861.928572 0,835.719883 L0,835.719883 Z M449.00496,587.658061 C449.00496,575.066495 438.87492,564.831432 426.36,564.831432 C413.82456,564.831432 403.69452,575.052821 403.69452,587.658061 C403.69452,600.272417 413.82456,610.505201 426.36,610.505201 C438.87492,610.505201 449.00496,600.272417 449.00496,587.658061 L449.00496,587.658061 Z M504.76236,587.658061 C504.76236,575.066495 494.63232,564.831432 482.1174,564.831432 C469.60248,564.831432 459.4542,575.052821 459.4542,587.658061 C459.4542,600.272417 469.60476,610.505201 482.1174,610.505201 C494.63004,610.505201 504.76236,600.272417 504.76236,587.658061 L504.76236,587.658061 Z M560.54256,587.658061 C560.54256,575.066495 550.41252,564.831432 537.8976,564.831432 C525.36216,564.831432 515.2344,575.052821 515.2344,587.658061 C515.2344,600.272417 525.36216,610.505201 537.8976,610.505201 C550.41252,610.505201 560.54256,600.272417 560.54256,587.658061 L560.54256,587.658061 Z M179.7894,397.904874 C179.7894,458.5062 226.8486,462.469409 226.8486,462.469409 C243.22584,467.686078 277.83396,465.097115 293.493,462.469409 C307.90488,460.017188 360.7872,455.411295 369.20724,454.661499 C369.52872,454.693405 370.03716,454.748102 370.46352,454.766334 C370.9104,454.745823 371.412,454.693405 371.7084,454.661499 C380.13756,455.3999 433.00164,460.017188 447.42948,462.469409 C463.11588,465.097115 497.69892,467.686078 514.08528,462.469409 C514.08528,462.469409 561.12852,458.517595 561.12852,397.904874 C561.12852,397.904874 561.12852,330.705795 514.08528,289.861263 C468.45564,250.247399 399.87552,241.653228 372.9624,241.142729 L372.9624,241.099427 C372.57936,241.099427 372.11196,241.131334 371.70612,241.131334 C371.31396,241.131334 370.82376,241.099427 370.46124,241.099427 C370.0782,241.099427 369.5994,241.131334 369.20496,241.131334 C368.80596,241.131334 368.32716,241.099427 367.95552,241.099427 L367.95552,241.142729 C341.06976,241.653228 272.46912,250.247399 226.84632,289.861263 C179.7894,330.705795 179.7894,397.904874 179.7894,397.904874 L179.7894,397.904874 Z" id="Robot" fill="#1E2C54"></path>
                    </g>
                    <ellipse id="Oval-2" fill="#1E2C54" cx="677" cy="639" rx="115" ry="49"></ellipse>
                </g>
                <g id="Group-3" transform="translate(416.000000, 599.000000)">
                    <circle id="Oval-3" fill="#D0011B" cx="127.5" cy="117.5" r="104.5"></circle>
                    <circle id="Oval-3-Copy" stroke="#76224E" stroke-width="2" opacity="0.870802239" cx="139" cy="116" r="116"></circle>
                    <path d="M139,245 C203.065031,245 255,193.065031 255,129 C255,64.934969 203.065031,13 139,13 C74.934969,13 23,64.934969 23,129 C23,193.065031 74.934969,245 139,245 Z" id="Oval-3-Copy-2" stroke="#76224E" stroke-width="2" opacity="0.870802239"></path>
                    <circle id="Oval-3-Copy-3" stroke="#76224E" stroke-width="2" opacity="0.870802239" cx="128" cy="129" r="116"></circle>
                    <circle id="Oval-3-Copy-4" stroke="#76224E" stroke-width="2" opacity="0.870802239" cx="116" cy="118" r="116"></circle>
                    <circle id="Oval-3-Copy-5" stroke="#76224E" stroke-width="2" opacity="0.870802239" cx="116" cy="116" r="116"></circle>
                    <g id="Group-4-Copy" transform="translate(96.000000, 53.000000)">
                        <g id="Group">
                            <path d="M46.8267443,81.5966143 L17.5858628,129.92266 L32.3541954,129.92266 C35.8505114,129.92266 40.1905696,127.483628 41.9937131,124.488126 L54.4355925,103.893108 C55.9012391,100.873083 55.8538378,96.4798065 54.1720416,93.6955744 L46.8267443,81.5966143 L46.8267443,81.5966143 Z" id="Shape" fill="#FFFFFF"></path>
                            <path d="M33.4614886,59.5849577 C35.264632,62.5672551 35.264632,67.4566385 33.4614886,70.4521403 L0.618112266,125.084208 C-0.652241164,127.783555 0.665513514,129.92266 3.92482328,129.92266 L17.5858628,129.92266 L46.8267443,81.5966143 L33.4614886,59.5849577 L33.4614886,59.5849577 Z" id="Shape" fill="url(#radialGradient-4)"></path>
                            <path d="M3.92482328,0.101233374 C0.417130977,0.101233374 -0.974569647,2.55158404 0.828573805,5.53576784 L54.1739376,93.6955744 C55.8557339,96.4816929 55.9031351,100.87497 54.4374886,103.893108 L67.4064699,82.4190568 L17.595343,0.0993470375 L3.92482328,0.0993470375 L3.92482328,0.101233374 Z" id="Shape" fill="#FFFFFF"></path>
                            <path d="M74.6266279,59.5849577 L41.9937131,5.53576784 C40.1905696,2.55158404 35.8505114,0.101233374 32.3541954,0.101233374 L17.593447,0.101233374 L67.4045738,82.4209432 L74.6266279,70.4521403 C76.4316674,67.4566385 76.4316674,62.5672551 74.6266279,59.5849577 L74.6266279,59.5849577 Z" id="Shape" fill="url(#radialGradient-5)"></path>
                            <path d="M54.1739376,93.6955744 L33.4614886,59.5849577 C35.264632,62.5672551 35.264632,67.4566385 33.4614886,70.4521403 L26.1692807,82.532237 L54.4374886,103.893108 C55.9031351,100.87497 55.8557339,96.4798065 54.1739376,93.6955744 L54.1739376,93.6955744 Z" id="Shape" fill="url(#linearGradient-6)"></path>
                        </g>
                        <path d="M74.6266279,59.5849577 L41.9937131,5.53576784 C40.1905696,2.55158404 35.8505114,0.101233374 32.3541954,0.101233374 L17.593447,0.101233374 L3.92482328,0.101233374 C0.417130977,0.101233374 -0.974569647,2.55158404 0.828573805,5.53576784 L33.4614886,59.5849577 C35.264632,62.5672551 35.264632,67.4566385 33.4614886,70.4521403 L0.618112266,125.084208 C-0.652241164,127.783555 0.665513514,129.92266 3.92482328,129.92266 L17.5858628,129.92266 L32.3541954,129.92266 C35.8505114,129.92266 40.1905696,127.483628 41.9937131,124.488126 L67.4045738,82.4190568 L74.6266279,70.4502539 C76.4316674,67.4566385 76.4316674,62.5672551 74.6266279,59.5849577 L74.6266279,59.5849577 Z" id="Shape" fill="url(#radialGradient-7)"></path>
                    </g>
                </g>
            </g>
        </g>
    </g>
</svg>