<?xml version="1.0" encoding="UTF-8" standalone="no"?>
<svg width="1076px" height="1076px" viewBox="0 0 1076 1076" version="1.1" xmlns="http://www.w3.org/2000/svg" xmlns:xlink="http://www.w3.org/1999/xlink">
    <!-- Generator: Sketch 3.7.2 (28276) - http://www.bohemiancoding.com/sketch -->
    <title>gdg_logo_square_offcolor</title>
    <desc>Created with Sketch.</desc>
    <defs>
        <radialGradient cx="6.59649984%" cy="2.14172508%" fx="6.59649984%" fy="2.14172508%" r="137.109246%" id="radialGradient-1">
            <stop stop-color="#577EC0" offset="0%"></stop>
            <stop stop-color="#557EBF" offset="100%"></stop>
        </radialGradient>
        <path d="M1080,958.512 C1080,1025.328 1025.328,1080 958.512,1080 L121.488,1080 C54.672,1080 0,1025.328 0,958.512 L0,121.488 C0,54.672 54.672,0 121.488,0 L958.512,0 C1025.328,0 1080,54.672 1080,121.488 L1080,958.512 L1080,958.512 Z" id="path-2"></path>
        <radialGradient cx="50.0006826%" cy="49.9997318%" fx="50.0006826%" fy="49.9997318%" r="64.1609104%" id="radialGradient-4">
            <stop stop-color="#DEDEDE" offset="0%"></stop>
            <stop stop-color="#D1D1D1" offset="100%"></stop>
        </radialGradient>
        <radialGradient cx="49.9993505%" cy="49.9988543%" fx="49.9993505%" fy="49.9988543%" r="61.3220108%" id="radialGradient-5">
            <stop stop-color="#DEDEDE" offset="0%"></stop>
            <stop stop-color="#D1D1D1" offset="100%"></stop>
        </radialGradient>
        <linearGradient x1="122.536784%" y1="50%" x2="-2.69925607%" y2="50%" id="linearGradient-6">
            <stop stop-color="#231F20" stop-opacity="0.2" offset="0%"></stop>
            <stop stop-color="#F2F2F2" stop-opacity="0.25" offset="100%"></stop>
        </linearGradient>
        <radialGradient cx="50.0001888%" cy="49.9998547%" fx="50.0001888%" fy="49.9998547%" r="70.2900058%" id="radialGradient-7">
            <stop stop-color="#FFFFFF" stop-opacity="0.1" offset="0%"></stop>
            <stop stop-color="#FFFFFF" stop-opacity="0.091" offset="8.96%"></stop>
            <stop stop-color="#FFFFFF" stop-opacity="0" offset="100%"></stop>
        </radialGradient>
    </defs>
    <g id="branding" stroke="none" stroke-width="1" fill="none" fill-rule="evenodd">
        <g id="logos" transform="translate(-1451.000000, -798.000000)">
            <g id="gdg_logo_square_offcolor" transform="translate(1451.000000, 798.000000)">
                <g id="Group">
                    <path d="M1075.152,954.216 C1075.152,1020.732 1020.732,1075.152 954.216,1075.152 L120.936,1075.152 C54.42,1075.152 0,1020.732 0,954.216 L0,120.936 C0,54.42 54.42,0 120.936,0 L954.204,0 C1020.72,0 1075.14,54.42 1075.14,120.936 L1075.14,954.216 L1075.152,954.216 Z" id="Shape" fill="url(#radialGradient-1)"></path>
                    <g>
                        <g id="backgroundImage-Clipped">
                            <mask id="mask-3" fill="white">
                                <use xlink:href="#path-2"></use>
                            </mask>
                            <g id="SVGID_A_"></g>
                        </g>
                        <g transform="translate(297.000000, 124.000000)" id="Shape">
                            <path d="M296.364,519.08 L111.3,826.508 L204.768,826.508 C226.896,826.508 254.364,810.992 265.776,791.936 L344.52,660.92 C353.796,641.708 353.496,613.76 342.852,596.048 L296.364,519.08 L296.364,519.08 Z" fill="#FFFFFF"></path>
                            <path d="M211.776,379.052 C223.188,398.024 223.188,429.128 211.776,448.184 L3.912,795.728 C-4.128,812.9 4.212,826.508 24.84,826.508 L111.3,826.508 L296.364,519.08 L211.776,379.052 L211.776,379.052 Z" fill="url(#radialGradient-4)"></path>
                            <path d="M24.84,0.644 C2.64,0.644 -6.168,16.232 5.244,35.216 L342.864,596.048 C353.508,613.772 353.808,641.72 344.532,660.92 L426.612,524.312 L111.36,0.632 L24.84,0.632 L24.84,0.644 Z" fill="#FFFFFF"></path>
                            <path d="M472.308,379.052 L265.776,35.216 C254.364,16.232 226.896,0.644 204.768,0.644 L111.348,0.644 L426.6,524.324 L472.308,448.184 C483.732,429.128 483.732,398.024 472.308,379.052 L472.308,379.052 Z" fill="url(#radialGradient-5)"></path>
                            <path d="M342.864,596.048 L211.776,379.052 C223.188,398.024 223.188,429.128 211.776,448.184 L165.624,525.032 L344.532,660.92 C353.808,641.72 353.508,613.76 342.864,596.048 L342.864,596.048 Z" fill="url(#linearGradient-6)"></path>
                        </g>
                        <path d="M769.308,503.052 L562.776,159.216 C551.364,140.232 523.896,124.644 501.768,124.644 L408.348,124.644 L321.84,124.644 C299.64,124.644 290.832,140.232 302.244,159.216 L508.776,503.052 C520.188,522.024 520.188,553.128 508.776,572.184 L300.912,919.728 C292.872,936.9 301.212,950.508 321.84,950.508 L408.3,950.508 L501.768,950.508 C523.896,950.508 551.364,934.992 562.776,915.936 L723.6,648.312 L769.308,572.172 C780.732,553.128 780.732,522.024 769.308,503.052 L769.308,503.052 Z" id="Shape" fill="url(#radialGradient-7)"></path>
                    </g>
                </g>
            </g>
        </g>
    </g>
</svg>