<?xml version="1.0" encoding="UTF-8" standalone="no"?>
<svg width="1076px" height="1076px" viewBox="0 0 1076 1076" version="1.1" xmlns="http://www.w3.org/2000/svg" xmlns:xlink="http://www.w3.org/1999/xlink">
    <!-- Generator: Sketch 3.7.2 (28276) - http://www.bohemiancoding.com/sketch -->
    <title>gdg_newdelhi_logo_bot</title>
    <desc>Created with Sketch.</desc>
    <defs>
        <radialGradient cx="6.59649984%" cy="2.14172508%" fx="6.59649984%" fy="2.14172508%" r="137.109246%" id="radialGradient-1">
            <stop stop-color="#577EC0" offset="0%"></stop>
            <stop stop-color="#557EBF" offset="100%"></stop>
        </radialGradient>
        <path d="M1080,958.512 C1080,1025.328 1025.328,1080 958.512,1080 L121.488,1080 C54.672,1080 0,1025.328 0,958.512 L0,121.488 C0,54.672 54.672,0 121.488,0 L958.512,0 C1025.328,0 1080,54.672 1080,121.488 L1080,958.512 L1080,958.512 Z" id="path-2"></path>
        <radialGradient cx="50.0006826%" cy="49.9997318%" fx="50.0006826%" fy="49.9997318%" r="64.1609104%" id="radialGradient-4">
            <stop stop-color="#DEDEDE" offset="0%"></stop>
            <stop stop-color="#D1D1D1" offset="100%"></stop>
        </radialGradient>
        <radialGradient cx="49.9993505%" cy="49.9988543%" fx="49.9993505%" fy="49.9988543%" r="61.3220108%" id="radialGradient-5">
            <stop stop-color="#DEDEDE" offset="0%"></stop>
            <stop stop-color="#D1D1D1" offset="100%"></stop>
        </radialGradient>
        <linearGradient x1="122.536784%" y1="50%" x2="-2.69925607%" y2="50%" id="linearGradient-6">
            <stop stop-color="#231F20" stop-opacity="0.2" offset="0%"></stop>
            <stop stop-color="#F2F2F2" stop-opacity="0.25" offset="100%"></stop>
        </linearGradient>
        <radialGradient cx="50.0001888%" cy="49.9998547%" fx="50.0001888%" fy="49.9998547%" r="70.2900058%" id="radialGradient-7">
            <stop stop-color="#FFFFFF" stop-opacity="0.1" offset="0%"></stop>
            <stop stop-color="#FFFFFF" stop-opacity="0.091" offset="8.96%"></stop>
            <stop stop-color="#FFFFFF" stop-opacity="0" offset="100%"></stop>
        </radialGradient>
    </defs>
    <g id="branding" stroke="none" stroke-width="1" fill="none" fill-rule="evenodd">
        <g id="logos" transform="translate(-2695.000000, -794.000000)">
            <g id="gdg_newdelhi_logo_bot" transform="translate(2695.000000, 794.000000)">
                <g id="logo_square_offcolor">
                    <path d="M1075.152,954.216 C1075.152,1020.732 1020.732,1075.152 954.216,1075.152 L120.936,1075.152 C54.42,1075.152 0,1020.732 0,954.216 L0,120.936 C0,54.42 54.42,0 120.936,0 L954.204,0 C1020.72,0 1075.14,54.42 1075.14,120.936 L1075.14,954.216 L1075.152,954.216 Z" id="Shape" fill="url(#radialGradient-1)"></path>
                    <g id="backgroundImage-Clipped" transform="translate(9.000000, 8.000000)">
                        <mask id="mask-3" fill="white">
                            <use xlink:href="#path-2"></use>
                        </mask>
                        <g id="SVGID_A_-Copy"></g>
                    </g>
                    <g id="gdg-symbol" transform="translate(443.000000, 135.000000)">
                        <g id="Group">
                            <path d="M296.364,519.08 L111.3,826.508 L204.768,826.508 C226.896,826.508 254.364,810.992 265.776,791.936 L344.52,660.92 C353.796,641.708 353.496,613.76 342.852,596.048 L296.364,519.08 L296.364,519.08 Z" id="Shape" fill="#FFFFFF"></path>
                            <path d="M211.776,379.052 C223.188,398.024 223.188,429.128 211.776,448.184 L3.912,795.728 C-4.128,812.9 4.212,826.508 24.84,826.508 L111.3,826.508 L296.364,519.08 L211.776,379.052 L211.776,379.052 Z" id="Shape" fill="url(#radialGradient-4)"></path>
                            <path d="M24.84,0.644 C2.64,0.644 -6.168,16.232 5.244,35.216 L342.864,596.048 C353.508,613.772 353.808,641.72 344.532,660.92 L426.612,524.312 L111.36,0.632 L24.84,0.632 L24.84,0.644 Z" id="Shape" fill="#FFFFFF"></path>
                            <path d="M472.308,379.052 L265.776,35.216 C254.364,16.232 226.896,0.644 204.768,0.644 L111.348,0.644 L426.6,524.324 L472.308,448.184 C483.732,429.128 483.732,398.024 472.308,379.052 L472.308,379.052 Z" id="Shape" fill="url(#radialGradient-5)"></path>
                            <path d="M342.864,596.048 L211.776,379.052 C223.188,398.024 223.188,429.128 211.776,448.184 L165.624,525.032 L344.532,660.92 C353.808,641.72 353.508,613.76 342.864,596.048 L342.864,596.048 Z" id="Shape" fill="url(#linearGradient-6)"></path>
                        </g>
                        <path d="M472.308,379.052 L265.776,35.216 C254.364,16.232 226.896,0.644 204.768,0.644 L111.348,0.644 L24.84,0.644 C2.64,0.644 -6.168,16.232 5.244,35.216 L211.776,379.052 C223.188,398.024 223.188,429.128 211.776,448.184 L3.912,795.728 C-4.128,812.9 4.212,826.508 24.84,826.508 L111.3,826.508 L204.768,826.508 C226.896,826.508 254.364,810.992 265.776,791.936 L426.6,524.312 L472.308,448.172 C483.732,429.128 483.732,398.024 472.308,379.052 L472.308,379.052 Z" id="Shape" fill="url(#radialGradient-7)"></path>
                    </g>
                    <ellipse id="Oval-1" fill="#F6C423" cx="372.5" cy="521" rx="97.5" ry="123"></ellipse>
                    <path d="M409.238,480.704 C409.238,472.081 416.164,465.095 424.723,465.095 C433.259,465.095 440.19,472.081 440.19,480.704 C440.19,489.324 433.259,496.315 424.723,496.315 C416.163,496.311 409.238,489.32 409.238,480.704 L409.238,480.704 Z M361.071,347.734 L360.943,347.734 L360.943,369.13 L380.582,369.13 L380.582,348.36 C387.34,344.934 392.025,337.962 392.025,329.813 C392.025,318.315 382.793,309 371.39,309 C359.991,309 350.749,318.315 350.749,329.813 C350.745,337.506 354.922,344.136 361.071,347.734 L361.071,347.734 Z M318.098,496.311 C326.637,496.311 333.567,489.32 333.567,480.697 C333.567,472.077 326.636,465.09 318.098,465.09 C309.539,465.09 302.613,472.077 302.613,480.697 C302.613,489.32 309.539,496.311 318.098,496.311 L318.098,496.311 Z M371.39,739.118 C394.686,739.118 414.488,724.175 422.006,703.275 L320.77,703.275 C328.291,724.174 348.087,739.118 371.39,739.118 L371.39,739.118 Z M210,675.702 C210,667.441 214.807,660.366 221.724,657.006 L221.724,568.509 C221.724,551.054 235.2,536.801 252.237,535.671 L252.237,492.846 C252.237,492.846 256.382,414.796 320.771,390.518 C339.897,383.31 357.359,380.395 372.489,379.847 C387.63,380.395 405.093,383.31 424.2,390.514 C488.601,414.792 492.751,492.842 492.751,492.842 L492.751,535.663 C509.776,536.797 523.255,551.055 523.255,568.505 L523.255,657.007 C530.171,660.367 534.979,667.447 534.979,675.703 C534.979,687.193 525.738,696.509 514.341,696.509 C502.944,696.509 493.703,687.194 493.703,675.703 C493.703,667.442 498.515,660.367 505.417,657.007 L505.417,597.847 C501.581,599.826 497.277,601.021 492.755,601.329 L492.755,621.891 C492.872,623.553 493.007,625.201 493.007,626.904 C493.007,628.706 492.891,630.488 492.755,632.271 L492.755,632.747 L492.733,632.747 C489.984,667.004 463.405,694.446 429.717,698.189 L429.745,698.656 L372.489,698.656 L315.226,698.656 L315.264,698.189 C281.577,694.446 255.005,667.003 252.256,632.747 L252.237,632.747 L252.237,632.271 C252.109,630.488 251.985,628.706 251.985,626.904 C251.985,625.205 252.113,623.553 252.237,621.891 L252.237,601.332 C247.698,601.02 243.395,599.834 239.559,597.846 L239.559,657.016 C246.473,660.376 251.283,667.452 251.283,675.703 C251.283,687.203 242.044,696.514 230.64,696.514 C219.247,696.512 210,687.202 210,675.702 L210,675.702 Z M406.932,566.856 C406.932,561.331 402.489,556.84 397,556.84 C391.502,556.84 387.059,561.325 387.059,566.856 C387.059,572.391 391.502,576.881 397,576.881 C402.489,576.881 406.932,572.391 406.932,566.856 L406.932,566.856 Z M431.387,566.856 C431.387,561.331 426.944,556.84 421.455,556.84 C415.966,556.84 411.515,561.325 411.515,566.856 C411.515,572.391 415.967,576.881 421.455,576.881 C426.943,576.881 431.387,572.391 431.387,566.856 L431.387,566.856 Z M455.852,566.856 C455.852,561.331 451.409,556.84 445.92,556.84 C440.422,556.84 435.98,561.325 435.98,566.856 C435.98,572.391 440.422,576.881 445.92,576.881 C451.409,576.881 455.852,572.391 455.852,566.856 L455.852,566.856 Z M288.855,483.595 C288.855,510.186 309.495,511.925 309.495,511.925 C316.678,514.214 331.857,513.078 338.725,511.925 C345.046,510.849 368.24,508.828 371.933,508.499 C372.074,508.513 372.297,508.537 372.484,508.545 C372.68,508.536 372.9,508.513 373.03,508.499 C376.727,508.823 399.913,510.849 406.241,511.925 C413.121,513.078 428.289,514.214 435.476,511.925 C435.476,511.925 456.109,510.191 456.109,483.595 C456.109,483.595 456.109,454.109 435.476,436.187 C415.463,418.805 385.384,415.034 373.58,414.81 L373.58,414.791 C373.412,414.791 373.207,414.805 373.029,414.805 C372.857,414.805 372.642,414.791 372.483,414.791 C372.315,414.791 372.105,414.805 371.932,414.805 C371.757,414.805 371.547,414.791 371.384,414.791 L371.384,414.81 C359.592,415.034 329.504,418.805 309.494,436.187 C288.855,454.109 288.855,483.595 288.855,483.595 L288.855,483.595 Z" id="Robot" fill="#1E2C54"></path>
                </g>
            </g>
        </g>
    </g>
</svg>