<?xml version="1.0" encoding="UTF-8" standalone="no"?>
<svg width="1080px" height="1080px" viewBox="0 0 1080 1080" version="1.1" xmlns="http://www.w3.org/2000/svg" xmlns:xlink="http://www.w3.org/1999/xlink">
    <!-- Generator: Sketch 3.6 (26304) - http://www.bohemiancoding.com/sketch -->
    <title>logo_square</title>
    <desc>Created with Sketch.</desc>
    <defs>
        <path id="path-1" d="M1080,958.512 C1080,1025.328 1025.328,1080 958.512,1080 L121.488,1080 C54.672,1080 0,1025.328 0,958.512 L0,121.488 C0,54.672 54.672,0 121.488,0 L958.512,0 C1025.328,0 1080,54.672 1080,121.488 L1080,958.512 L1080,958.512 Z"></path>
        <path id="path-3" d="M1080,958.512 C1080,1025.328 1025.328,1080 958.512,1080 L121.488,1080 C54.672,1080 0,1025.328 0,958.512 L0,121.488 C0,54.672 54.672,0 121.488,0 L958.512,0 C1025.328,0 1080,54.672 1080,121.488 L1080,958.512 L1080,958.512 Z"></path>
        <radialGradient cx="-54.1555987%" cy="-174.154426%" fx="-54.1555987%" fy="-174.154426%" r="402.157161%" id="radialGradient-5">
            <stop stop-color="#FFCE4E" offset="0%"></stop>
            <stop stop-color="#F5C337" offset="100%"></stop>
        </radialGradient>
        <radialGradient cx="-6.593919%" cy="-88.3500641%" fx="-6.593919%" fy="-88.3500641%" r="326.488856%" id="radialGradient-6">
            <stop stop-color="#0DA960" offset="0%"></stop>
            <stop stop-color="#05924B" offset="100%"></stop>
        </radialGradient>
        <radialGradient cx="-4.42276749%" cy="-2.56440874%" fx="-4.42276749%" fy="-2.56440874%" r="226.265021%" id="radialGradient-7">
            <stop stop-color="#577EC0" offset="0%"></stop>
            <stop stop-color="#557EBF" offset="100%"></stop>
        </radialGradient>
        <radialGradient cx="-35.1621493%" cy="-3.23098682%" fx="-35.1621493%" fy="-3.23098682%" r="261.057395%" id="radialGradient-8">
            <stop stop-color="#E04B3F" offset="0%"></stop>
            <stop stop-color="#CD382D" offset="100%"></stop>
        </radialGradient>
        <linearGradient x1="122.538745%" y1="50.0008476%" x2="-2.70910562%" y2="50.0008476%" id="linearGradient-9">
            <stop stop-color="#231F20" stop-opacity="0.2" offset="0%"></stop>
            <stop stop-color="#F2F2F2" stop-opacity="0.25" offset="100%"></stop>
        </linearGradient>
        <radialGradient cx="49.9993392%" cy="50.0007232%" fx="49.9993392%" fy="50.0007232%" r="70.2931732%" id="radialGradient-10">
            <stop stop-color="#FFFFFF" stop-opacity="0.1" offset="0%"></stop>
            <stop stop-color="#FFFFFF" stop-opacity="0.091" offset="8.96%"></stop>
            <stop stop-color="#FFFFFF" stop-opacity="0" offset="100%"></stop>
        </radialGradient>
    </defs>
    <g id="Assets" stroke="none" stroke-width="1" fill="none" fill-rule="evenodd">
        <g id="logo_square" transform="translate(-106.000000, -105.000000)">
            <g transform="translate(106.000000, 105.000000)" id="Group">
                <g>
                    <path d="M1080,958.512 C1080,1025.328 1025.328,1080 958.512,1080 L121.488,1080 C54.672,1080 0,1025.328 0,958.512 L0,121.488 C0,54.672 54.672,0 121.488,0 L958.512,0 C1025.328,0 1080,54.672 1080,121.488 L1080,958.512 L1080,958.512 Z" id="Shape" fill="#F0F0F0"></path>
                    <g>
                        <g id="world-Clipped">
                            <mask id="mask-2" fill="white">
                                <use xlink:href="#path-1"></use>
                            </mask>
                            <g id="SVGID_1_"></g>
                            <g id="world" mask="url(#mask-2)" fill="#E0E0E0">
                                <g transform="translate(-228.000000, 72.000000)" id="Shape">
                                    <path d="M610.788,206.544 C611.496,206.268 613.236,206.988 613.716,206.544 C615.276,205.14 616.356,200.496 618.156,197.712 C620.628,193.932 623.268,193.788 624.012,190.344 C624.672,187.596 621.372,180.108 622.62,174.216 C623.016,171.888 625.476,170.808 626.976,168.384 C629.724,163.716 631.584,160.32 634.284,155.148 C637.212,149.712 637.92,141.492 635.772,131.604 C637.944,129.888 639.9,127.932 641.652,125.772 C638.604,113.028 641.604,100.692 647.544,90.48 C648.828,88.224 649.644,85.704 650.46,84.648 C655.296,77.844 667.116,74.472 666.636,64.044 C662.292,56.568 651.048,57.912 643.092,61.188 C641.784,58.548 639.552,56.82 638.7,53.76 C639.852,49.512 645.66,49.992 644.532,43.512 C642.432,39.3 637.86,38.016 634.284,34.716 C628.236,29.064 625.944,24.048 616.68,21.48 C613.908,20.712 608.628,19.824 606.42,20.016 C603.456,20.172 598.716,24.828 593.172,25.884 C589.2,26.628 584.82,25.032 582.888,25.884 C577.08,28.44 574.32,36.432 568.212,39.072 C563.256,41.268 560.28,36.924 556.452,42.048 C552.756,35.988 543.576,35.376 532.932,36.144 C532.2,16.848 515.484,13.476 502.116,6.744 L478.644,6.744 C471.324,14.652 455.424,13.908 443.352,17.076 C439.104,19.644 439.656,27.036 435.984,30.312 C433.08,28.788 433.728,23.772 428.724,24.384 C413.412,31.164 408.288,48.096 406.62,68.472 C407.952,74.532 417.504,72.348 418.428,78.768 C415.98,86.628 407.76,88.68 399.264,90.492 C391.944,90 393.996,80.088 384.612,81.696 C374.988,89.4 395.88,99.924 383.076,106.656 C375.996,103.14 372.42,96.42 375.804,86.148 C370.704,79.68 363.948,83.736 353.748,83.124 C349.344,91.608 357.072,96.42 358.128,103.728 C365.148,104.628 371.112,106.44 372.852,112.536 C377.46,113.268 378.024,109.896 383.088,111.12 C388.824,122.892 412.824,129.084 427.2,122.82 C429,118.668 429,113.736 427.2,109.632 C418.596,103.212 403.104,112.656 400.812,100.8 C409.044,95.988 413.064,106.656 424.272,103.728 C427.812,107.976 432.744,108.576 438.972,106.656 C443.244,100.548 444.732,93.912 450.696,89.052 C452.58,87.528 456.732,87.744 459.528,86.148 C461.952,84.732 462.564,81.648 465.408,81.696 C467.604,77.496 468.096,71.64 471.24,68.472 C482.82,67.272 487.692,59.46 497.724,56.724 C499.38,60.972 500.364,65.832 500.652,71.448 C493.428,78.384 477.636,76.74 468.324,81.696 C472.068,93.864 464.46,108.816 472.776,116.94 C484.92,119.748 493.488,117.06 499.212,125.796 C502.248,130.464 504.156,144.54 503.664,155.172 C503.4,159.396 500.76,163.812 500.652,168.408 C500.508,172.656 502.536,177.456 502.128,180.144 C501.408,184.512 496.404,187.896 497.724,191.868 C497.136,197.904 503.976,196.416 505.092,200.688 C501.048,206.328 494.352,212.376 493.332,222.756 C492.564,230.568 496.584,248.004 499.212,256.512 C501.324,263.724 501.924,268.116 506.532,271.212 C508.008,272.148 510.6,271.476 512.412,272.7 C516.252,275.112 518.016,280.608 522.696,278.58 C529.728,274.008 531.168,265.416 535.908,258 C536.568,256.908 536.496,254.748 537.42,253.608 C537.804,252.948 540.012,252.684 540.288,252.12 C542.592,247.896 541.668,242.544 546.168,238.932 C550.08,235.704 560.856,236.208 568.224,231.504 C573.912,227.928 576.924,220.068 584.364,216.864 C589.848,214.464 598.86,215.304 604.968,212.46 C605.628,212.088 605.928,209.724 606.444,209.544 C607.188,209.196 608.664,209.988 609.36,209.544 C609.888,209.088 610.344,206.796 610.788,206.544 L610.788,206.544 Z"></path>
                                    <path d="M989.76,53.748 C990.672,54.288 991.716,56.22 992.724,56.712 C1001.58,60.648 1007.724,56.964 1014.768,55.248 C1017.48,58.956 1017.48,65.28 1023.564,65.52 C1028.556,63.684 1032.024,60.228 1033.848,55.248 C1030.932,51.96 1028.184,46.8 1022.088,46.44 C1017.576,46.152 1016.244,47.916 1011.84,49.344 C1007.064,42.9 1001.628,37.044 991.236,36.132 C988.524,30.588 985.488,25.32 976.596,25.884 C971.016,33.132 973.416,42.048 978.024,47.868 C979.104,49.188 987.948,52.596 989.76,53.748 L989.76,53.748 Z"></path>
                                    <path d="M377.244,67.008 L387.54,67.008 C388.296,71.568 390.144,75.216 391.932,78.756 C396.012,79.812 396.42,75.42 397.812,72.828 C403.836,61.74 396.168,58.32 388.98,53.748 C389.388,47.58 384.732,46.308 383.076,42.036 C367.932,40.644 370.32,61.716 377.244,67.008 L377.244,67.008 Z"></path>
                                    <path d="M1193.976,49.332 C1189.908,39.492 1168.812,43.656 1161.708,47.856 C1159.572,72.816 1192.332,66.804 1193.976,49.332 L1193.976,49.332 Z"></path>
                                    <path d="M1214.508,46.428 C1214.04,43.452 1209.216,42.888 1204.26,44.94 C1203.984,54.852 1215.3,50.664 1214.508,46.428 L1214.508,46.428 Z"></path>
                                    <path d="M340.512,62.544 C344.376,61.044 347.112,58.356 347.832,53.748 C351.336,52.368 355.08,51.168 353.736,44.952 L346.404,44.952 C346.62,52.536 336.732,50.004 333.18,53.748 C332.904,59.436 335.544,62.196 340.512,62.544 L340.512,62.544 Z"></path>
                                    <path d="M870.84,69.936 C874.356,70.344 873.576,69.12 876.708,67.008 C882.012,63.3 881.772,63.144 884.04,58.152 C885.276,55.56 888.024,54.66 886.968,52.32 C882.708,48.66 879.624,58.644 873.732,58.152 C870.744,56.268 871.116,51.036 864.924,52.32 C858.612,60.996 864.324,69.12 870.84,69.936 L870.84,69.936 Z"></path>
                                    <path d="M300.912,78.744 C299.796,89.592 305.484,93.708 309.66,99.276 C323.232,95.952 342.048,102.504 344.952,90.468 C346.056,85.488 342.732,86.94 340.5,83.1 C339.024,80.628 340.872,75.576 336.144,75.828 C330,74.628 333.36,82.884 327.3,81.672 C322.896,78.264 321.084,72.264 318.48,67.008 C319.728,62.856 323.256,60.948 322.896,55.248 C316.596,50.784 312.072,52.524 306.744,55.248 C300.96,58.2 290.52,61.5 290.52,67.008 C292.728,72.252 299.196,73.14 300.912,78.744 L300.912,78.744 Z"></path>
                                    <path d="M851.736,74.292 L851.736,65.52 C847.524,62.1 840.648,65.292 837.024,67.008 C838.356,73.38 844.692,77.988 851.736,74.292 L851.736,74.292 Z"></path>
                                    <path d="M1431.972,80.22 C1424.328,75.828 1417.896,81.504 1412.832,81.672 C1408.332,81.792 1403.148,79.476 1398.168,78.756 C1394.808,78.264 1391.604,79.128 1387.872,78.756 C1380.48,77.928 1372.908,75.036 1365.864,74.304 C1354.332,73.236 1349.268,78.096 1340.904,78.756 C1339.152,80.952 1339.032,84.756 1336.464,86.124 C1330.74,84.984 1327.38,90.252 1323.252,91.956 C1320.276,93.216 1316.496,93.648 1312.98,94.92 C1309.692,96.036 1307.1,98.94 1302.66,97.788 C1296.528,94.8 1292.844,86.796 1285.044,86.112 C1277.736,85.452 1271.46,93.144 1264.488,93.432 C1262.112,93.528 1260.744,92.604 1258.56,91.944 C1256.556,91.284 1252.56,91.092 1251.288,90.456 C1246.848,88.524 1245.684,83.916 1239.528,83.088 C1235.076,82.596 1231.044,85.452 1226.316,86.112 C1219.44,87 1213.464,84.252 1207.236,87.552 C1203.456,92.064 1207.644,97.992 1207.236,103.692 C1201.884,106.188 1196.244,108.432 1189.572,109.596 C1184.988,111.312 1185.408,118.128 1179.324,118.38 C1167.312,110.352 1166.316,91.236 1141.08,96.384 C1138.392,100.512 1138.392,107.34 1132.308,108.108 C1125.684,108.444 1122.888,104.004 1116.096,103.692 C1108.26,103.32 1098.516,111.264 1091.148,103.692 C1093.092,81.24 1076.904,66.168 1057.392,74.292 C1050.18,72.192 1046.844,66.264 1038.264,65.52 C1038.096,67.788 1034.52,66.672 1035.36,69.936 C1030.116,74.736 1036.68,81.948 1035.36,86.124 C1033.116,92.784 1027.584,93.54 1019.22,94.92 C1012.02,106.536 993.888,111.024 1000.08,131.604 C997.104,134.484 990.384,133.704 989.772,138.972 C986.412,140.496 986.784,145.728 986.904,150.648 C980.256,153.42 976.776,159.276 969.228,161.004 C963.516,156.96 961.296,149.376 951.648,149.244 C950.268,155.244 946.824,169.872 947.208,175.656 C947.58,181.704 954.312,186.972 950.16,191.832 C941.196,190.104 936.192,188.628 926.676,190.344 C925.8,192.96 928.428,198.996 925.188,199.2 C918.384,205.056 909.096,201.228 901.728,203.652 C901.128,203.772 899.436,206.16 898.704,206.544 C896.82,207.528 894.516,206.796 892.896,208.02 C888.252,211.428 887.64,219 881.1,219.756 C878.256,216.252 879.156,208.98 872.28,209.508 C866.268,212.376 876.18,225.96 866.448,227.088 C860.076,226.62 860.88,219 857.64,215.304 C846.204,209.232 834.492,203.208 819.42,200.652 C815.352,196.032 812.34,191.544 807.696,190.344 C793.908,186.936 783.732,196.092 778.284,199.2 C774.132,201.552 771.912,201.816 769.5,203.652 C766.476,205.848 763.956,207.78 762.132,209.508 C757.128,214.128 758.352,219.756 756.3,225.612 C755.424,228.06 751.884,230.868 750.42,234.408 C748.728,238.44 749.172,243.132 747.468,246.18 C747.192,246.672 744.972,247.164 744.504,247.632 C743.484,248.82 744.06,250.824 743.076,252.072 C735.504,261.468 727.008,262.836 721.032,271.164 C721.5,282.924 722.28,294.384 728.328,300.552 C737.844,302.712 738.288,295.74 745.956,296.16 C748.008,298.992 747.396,304.512 748.956,307.884 C746.784,305.736 739.32,305.736 737.136,307.884 C733.824,314.112 738,319.128 737.136,326.988 C733.428,329.628 728.988,331.572 723.972,332.844 C720.072,336.78 718.068,342.684 712.2,344.58 C711.588,337.308 698.364,323.412 693.108,312.312 C691.608,309.06 693.348,304.824 691.656,302.016 C688.812,297.276 682.02,296.964 678.408,299.064 C674.28,301.848 675.672,309.996 675.48,316.716 C665.376,319.8 656.412,330.228 660.768,343.104 C669.312,344.844 671.484,340.14 676.968,338.76 C679.068,334.02 677.58,325.704 684.288,325.524 C687.132,331.584 679.128,343.272 684.288,351.96 C689.232,352.896 697.968,350.112 700.464,353.436 C697.668,358.476 690.576,359.292 685.764,362.256 C686.052,372 699.972,374.316 697.512,384.3 C694.176,398.304 676.788,386.58 665.22,393.072 C661.56,396.048 664.428,401.328 663.732,406.32 C662.664,414.348 658.932,421.044 662.244,426.828 C667.284,432.516 674.46,429.972 675.48,437.148 C676.644,445.02 667.5,446.892 660.768,454.8 C657.684,458.448 657.324,469.56 656.412,470.94 C653.448,475.38 646.02,477.552 641.712,481.212 C636.66,485.496 633.372,491.388 629.988,497.412 C627.744,501.276 624.576,506.664 624.06,510.588 C623.232,516.804 626.16,526.584 625.524,534.12 C625.272,536.712 622.944,539.28 622.668,541.44 C619.98,557.304 629.412,559.968 635.832,567.936 C638.208,570.888 638.52,572.568 640.236,575.244 C643.644,580.452 645.936,582.216 650.52,585.504 C654.888,588.612 656.676,590.616 660.768,592.92 C670.752,598.308 672.696,592.944 684.288,592.92 C688.404,592.848 692.808,594.792 696.06,594.312 C699.24,593.892 702.624,591.096 706.332,589.908 C720.96,585.168 723.48,587.88 732.768,597.264 C739.416,597.012 745.872,596.952 747.468,601.68 C751.188,608.712 744.108,616.452 745.956,625.164 C747.588,632.484 755.712,636.468 759.204,642.804 C761.088,646.212 763.896,652.26 765.108,657.444 C766.032,661.86 767.316,670.632 766.524,675.12 C765.984,678.492 761.904,680.028 760.692,682.416 C759.876,684.06 759.54,687.252 759.204,688.344 C755.46,700.44 759.66,708.912 763.62,717.72 C765.492,722.004 768.408,726.288 769.5,730.956 C770.832,736.884 770.112,742.116 770.94,747.084 C772.38,755.28 780.024,761.304 782.7,769.14 C785.292,776.76 782.58,785.508 790.068,791.136 C800.664,789.624 812.328,789.96 820.848,788.22 C822.636,787.848 830.952,783.972 831.18,783.816 C835.404,779.784 839.256,776.76 844.416,770.604 C851.172,762.576 857.424,755.04 859.068,744.168 C864.336,739.344 868.8,740.208 870.852,733.884 C872.7,728.112 868.824,720.072 870.852,714.792 C874.296,705.72 891.432,702.804 895.788,695.712 C900.06,688.848 899.364,671.676 897.264,666.336 C895.524,662.004 893.316,657.384 892.896,653.064 C892.092,645.744 894.432,641.052 895.788,638.364 C899.088,631.944 899.868,630.228 904.584,625.176 C908.052,621.504 912.168,616.704 914.844,614.904 C923.376,609.24 933.456,600.552 936.948,592.932 C937.176,592.344 939.54,592.008 939.828,591.42 C944.388,583.332 948.96,573.324 950.148,563.484 C941.04,553.848 918.588,573.552 913.392,559.08 C916.032,554.46 923.328,554.136 929.568,551.76 C936.192,549.192 944.988,545.904 950.16,542.94 C951.6,542.088 951.984,540.684 953.04,540.024 C958.764,536.436 964.332,535.824 969.228,532.656 C970.008,532.164 971.28,530.4 972.156,529.716 C976.632,526.08 979.248,523.308 982.452,517.968 C985.152,513.468 987.456,509.844 986.892,506.22 C985.452,497.232 975.036,501.216 973.644,490.104 C988.608,492.576 999.9,492.852 1016.256,491.532 C1023.912,498.108 1032.168,504.048 1036.788,513.564 C1042.224,514.056 1046.892,515.256 1050.036,517.968 C1050.576,531.072 1056.912,540.036 1060.344,547.368 C1061.28,549.492 1060.968,551.064 1061.76,553.26 C1062.504,555.084 1063.992,556.128 1064.7,557.628 C1068.012,564.48 1070.46,571.02 1074.984,576.708 C1080.468,577.788 1081.308,574.2 1086.744,575.268 C1086.576,582.288 1088.556,587.16 1094.112,588.504 C1096.248,587.148 1101.3,581.136 1097.004,578.244 C1097.796,571.524 1089.168,574.296 1089.66,567.972 C1088.184,562.764 1091.124,553.344 1091.124,551.784 C1091.124,551.292 1089.372,548.556 1089.66,545.904 C1090.32,540.588 1102.8,529.8 1107.3,525.348 C1117.968,514.668 1123.14,507.432 1138.188,507.732 C1146.24,515.736 1153.44,524.736 1157.232,537.048 C1161.684,539.136 1162.524,536.388 1168.992,537.048 C1173.828,544.476 1177.08,553.404 1179.288,563.508 C1184.964,562.884 1183.344,554.76 1191.036,556.14 C1205.004,561 1200.948,572.424 1213.104,572.316 C1217.34,572.268 1221.84,566.436 1223.34,564.996 C1227.276,561.348 1230.192,558.852 1230.744,554.664 C1231.248,550.224 1227.348,539.652 1226.292,538.56 C1225.656,537.888 1225.476,536.208 1224.804,535.596 C1222.164,533.004 1218.168,532.284 1216.032,529.74 C1208.448,520.86 1213.068,509.136 1224.804,510.624 C1229.1,513.828 1220.028,523.932 1229.256,523.872 C1235.7,523.464 1232.076,513.012 1235.088,509.196 C1246.896,504.12 1257.516,501.456 1264.464,494.496 C1271.184,487.74 1271.112,485.208 1274.748,475.404 C1278.192,466.296 1279.692,463.548 1277.64,454.824 C1277.052,452.136 1276.872,447.528 1276.212,445.944 C1274.964,442.692 1270.56,439.596 1268.844,437.184 C1267.476,435.228 1266.768,432.54 1265.952,431.316 C1263.648,428.028 1263.132,429.564 1262.988,425.472 C1262.856,419.544 1273.212,414.768 1268.844,410.76 C1262.76,406.512 1254.288,413.676 1251.252,406.356 C1251.252,398.988 1255.92,396.324 1260.048,393.108 C1264.788,398.472 1268.28,399.336 1277.64,397.56 C1280.94,404.556 1287.084,409.608 1290.948,416.64 C1292.952,420.396 1292.052,425.976 1296.828,428.4 C1301.148,427.86 1304.244,426.048 1307.04,423.972 C1308.936,407.94 1297.932,404.724 1293.804,394.596 C1298.424,388.872 1298.808,379.032 1302.612,372.552 C1306.176,370.176 1312.104,370.236 1315.86,368.136 C1319.916,362.808 1323.54,354.552 1326.168,346.14 C1328.424,338.64 1332.096,326.088 1332.012,319.68 C1331.964,314.916 1326.492,310.644 1330.572,306.444 C1332.288,314.028 1334.52,321.108 1340.844,324.06 C1352.088,308.592 1330.836,297.48 1329.036,281.508 C1313.964,277.296 1295.532,281.76 1292.304,269.724 C1292.052,268.5 1294.656,257.172 1295.268,255.024 C1295.436,254.484 1298.04,252.888 1298.196,252.12 C1299.504,247.212 1298.904,237.708 1301.148,234.444 C1305.552,228.072 1313.256,229.56 1320.216,227.124 C1325.532,225.3 1327.968,220.872 1332,221.268 C1338.372,221.556 1341.876,226.416 1348.188,222.756 C1353.66,216.576 1344.9,196.116 1355.532,191.868 C1362.876,190.38 1362.696,196.464 1368.72,196.296 C1372.524,195.576 1373.676,188.208 1377.528,191.868 C1374.276,201.108 1376.484,211.428 1374.6,221.268 C1373.736,225.84 1370.724,230.028 1370.208,234.456 C1367.856,253.62 1375.68,261.204 1381.932,271.212 C1386.384,278.34 1390.02,287.472 1396.656,290.304 C1403.976,284.604 1400.844,270.924 1402.536,262.404 C1402.98,260.148 1405.428,258.66 1405.428,256.524 C1405.524,254.268 1403.004,250.26 1402.536,246.24 C1401.948,241.836 1403.232,236.58 1402.536,234.468 C1400.88,229.716 1394.256,226.476 1392.228,221.28 C1389.684,214.788 1392.936,210.216 1389.312,205.104 C1395.912,198.912 1402.872,193.224 1414.32,191.868 C1416.54,182.376 1419.06,173.148 1423.068,165.456 C1425.732,161.724 1433.076,162.768 1433.4,156.6 C1431.588,145.488 1419.792,144.132 1417.224,134.616 C1416.72,132.756 1418.7,128.4 1418.652,125.82 C1418.652,121.764 1416.72,120.108 1417.224,115.5 C1422.288,108.984 1430.88,114.744 1439.232,111.156 C1442.748,104.988 1436.916,102.516 1436.268,96.456 C1437.096,88.752 1434.948,84.048 1431.972,80.22 L1431.972,80.22 Z M841.44,232.956 C846.288,234.48 853.452,233.7 857.616,235.92 C857.712,243.828 848.376,242.388 841.44,243.264 C839.34,241.308 839.34,234.984 841.44,232.956 L841.44,232.956 Z M842.928,376.896 C850.428,375.744 848.88,383.676 854.604,384.288 C861.36,384.588 861.36,378.264 863.46,373.98 L867.9,373.98 C867.084,389.988 884.46,387.792 888.456,398.952 C883.344,411.324 872.256,402.024 863.46,400.44 C853.452,398.628 845.892,403.776 834.096,404.844 C825.6,396.864 833.484,380.1 842.928,376.896 L842.928,376.896 Z M772.38,310.812 C771.888,300.924 775.452,296.772 778.26,287.352 C778.488,280.812 772.284,278.472 772.38,272.652 C772.512,264.24 779.232,260.76 785.616,256.464 C786.852,250.356 786.744,242.88 791.508,240.288 C793.884,239.916 794.052,241.668 795.888,241.764 C797.556,252.768 788.352,252.84 785.616,259.38 C785.256,273.528 788.988,283.464 798.852,287.34 C798.096,300.624 786.144,305.904 791.52,321.084 C787.188,324.264 783.276,320.568 778.272,321.084 C771.024,321.912 763.332,329.808 757.704,322.596 C759.396,315.432 768.912,316.14 772.38,310.812 L772.38,310.812 Z M837.024,460.644 C830.448,460.344 825.336,457.956 819.396,456.3 C813.24,454.476 805.872,451.32 803.232,451.836 C796.704,453.12 796.68,459.18 791.496,463.62 C785.844,462.948 780.78,461.496 776.784,457.704 C772.092,453.18 761.04,453 753.276,447.456 C754.152,439.26 752.592,433.416 748.908,429.804 C736.608,430.488 726.888,429.54 716.556,431.28 C705.684,433.14 695.388,441.804 684.24,437.148 C689.304,430.884 696.888,432.876 701.856,426.828 C704.136,424.188 703.188,418.524 704.82,415.152 C706.824,411.192 711.072,409.452 713.64,406.32 C716.76,402.468 717.18,398.136 720.984,396.048 C726.516,393.24 737.388,395.784 740.1,390.156 C751.032,395.88 756.828,406.716 769.464,410.736 C772.104,413.484 773.412,417.528 776.784,419.508 C792.996,406.488 765.384,400.212 762.084,388.728 C762.324,386.976 764.772,387.456 766.476,387.192 C771,394.44 781.26,395.964 787.056,401.892 C787.032,405.348 789.576,406.26 788.52,410.736 C793.656,413.04 797.112,431.004 804.696,431.292 C817.104,431.736 810.492,420.42 812.016,412.152 C815.88,412.008 817.176,409.956 819.372,412.152 C820.74,413.628 819.912,417.9 820.812,419.508 C821.94,421.38 822.672,423.216 823.824,425.436 C826.068,429.852 827.952,430.284 831.144,434.244 C846.3,431.904 854.1,439.26 866.4,435.684 C868.86,444.252 864.84,453.168 860.508,459.168 C851.844,457.368 845.52,461.088 837.024,460.644 L837.024,460.644 Z M906.072,545.868 C902.532,545.82 899.892,544.992 897.264,542.928 C892.332,539.112 892.332,533.88 888.468,528.228 C886.836,525.972 883.476,524.148 882.612,522.348 C881.1,519.3 881.232,514.2 879.624,510.588 C877.836,506.58 874.464,504.096 872.28,500.316 C871.668,499.236 872.868,497.064 872.28,495.876 C871.296,493.872 864.72,489.864 866.448,482.712 L870.864,482.712 C873.864,486.216 875.064,490.152 878.184,494.472 C880.644,497.892 885.18,500.724 886.992,504.732 C887.988,506.952 887.184,509.868 888.468,512.052 C894.84,522.744 908.712,531.744 906.072,545.868 L906.072,545.868 Z M914.844,379.908 C920.268,375 923.844,368.28 935.484,369.576 C939.504,376.452 930.432,376.692 931.02,384.3 C930.864,390 937.308,392.844 939.828,397.536 C941.52,400.572 941.52,404.808 942.792,407.784 C945.48,414.252 952.248,420.18 948.636,426.852 C941.676,431.256 933.768,425.628 929.556,422.508 C933.996,398.952 916.62,397.248 914.844,379.908 L914.844,379.908 Z M954.576,495.864 C947.16,495.84 938.88,480.216 933.996,475.38 C932.292,473.184 932.292,471.636 933.996,469.5 L938.34,469.5 C943.284,479.736 955.068,483.132 966.312,487.056 C962.364,492.372 959.352,495.96 954.576,495.864 L954.576,495.864 Z"></path>
                                    <path d="M1205.748,77.256 C1206.612,71.988 1201.368,72.768 1196.94,72.816 C1194.924,79.452 1202.856,79.968 1205.748,77.256 L1205.748,77.256 Z"></path>
                                    <path d="M753.288,130.164 C762.924,129.504 758.808,115.128 766.5,112.512 C768.432,116.46 769.68,121.104 776.796,119.88 C782.316,109.992 767.652,108.78 767.988,99.276 C775.968,96.984 784.368,95.148 784.176,84.624 C780.192,79.26 770.136,80.004 760.668,80.208 C756.66,83.04 753.948,87.216 748.92,89.016 C745.38,90.948 738.744,89.592 735.672,91.944 C730.932,103.44 740.904,110.52 745.92,116.892 C746.148,123.624 749.508,127.14 753.288,130.164 L753.288,130.164 Z"></path>
                                    <path d="M530.016,639.852 C525.96,636.84 520.872,632.064 518.28,631.02 C511.62,628.476 503.004,630.192 496.224,628.14 C493.164,627.168 490.62,623.64 487.44,622.284 C483.54,620.544 479.784,621.696 477.156,620.796 C467.868,617.472 468.684,611.76 465.396,604.608 C463.812,601.2 461.616,596.448 459.516,594.336 C458.976,593.736 453.204,589.644 450.684,588.492 C445.632,586.164 442.092,587.676 435.984,587.016 C429.708,586.344 422.532,576.516 418.428,573.78 C414.792,571.38 411.708,565.788 409.62,564.972 C402.492,562.224 392.04,565.968 386.112,564.972 C379.512,563.892 377.412,559.812 372.864,559.092 C361.32,557.16 353.484,559.548 349.356,562.008 C345.144,564.6 343.296,569.916 336.168,572.292 C333.696,573.108 330.492,571.38 328.812,573.78 L327.648,574.884 C326.94,574.74 326.208,574.668 325.464,574.86 L324.396,573.78 C313.848,572.244 308.532,569.328 306.756,560.568 C305.652,554.952 311.532,548.628 308.244,542.928 C305.244,536.592 291.648,540.828 287.664,535.56 C284.148,527.748 294.336,522.012 292.116,510.588 C276.876,504.48 276.876,518.184 270.024,522.348 C253.692,532.308 241.164,516.42 243.588,497.412 C244.008,493.836 248.748,476.268 249.456,475.38 C251.916,472.092 264.684,466.692 267.108,466.524 C271.068,466.356 275.676,470.064 280.296,469.5 C284.208,468.036 287.052,464.376 292.116,463.62 C300,462.396 309.228,466.284 314.1,469.5 C315.696,478.14 315.696,488.472 325.872,488.568 C334.02,478.872 322.152,469.572 325.872,457.704 C326.64,455.208 329.4,453.792 331.704,451.836 C336.552,447.756 340.32,444.924 344.952,441.588 C347.82,439.488 351.252,438.576 352.248,437.172 C355.56,432.504 354.396,425.772 356.664,420.984 C358.08,418.092 361.656,415.308 364.008,412.164 C370.08,404.244 372.864,400.908 383.052,398.964 C385.788,390.564 389.532,382.044 399.24,381.36 C404.148,380.988 406.656,383.82 412.512,384.3 C419.232,379.74 430.068,379.332 432.996,371.088 C425.508,369.708 422.064,369.6 418.392,363.72 C417.192,361.872 419.172,356.892 418.392,353.436 C417.348,349.116 410.412,348.708 415.416,346.116 C422.916,347.772 426.816,349.332 432.996,347.556 C438.156,346.164 445.44,341.952 449.244,344.592 C448.104,350.892 442.38,352.5 443.328,360.792 C450.228,364.152 457.512,367.2 468.288,366.696 C473.28,355.8 462.48,350.736 459.492,343.104 C463.68,333.756 462.828,325.992 459.492,321.108 C458.448,319.656 457.392,316.224 456.564,315.228 C453.06,311.256 447.456,310.272 444.84,304.992 C442.104,299.556 442.944,293.424 441.876,288.804 C440.796,283.98 440.064,279.792 437.448,274.08 C427.044,272.46 429.708,284.016 418.404,281.472 C414.228,276.984 416.208,272.076 416.868,265.284 C409.908,256.176 400.908,242.604 384.6,247.632 C380.616,252.9 383.448,259.056 381.672,265.284 C380.364,269.94 376.248,273.42 375.792,278.532 C375.3,283.584 378.888,289.824 377.232,294.672 C375.156,300.924 364.908,302.196 361.08,309.324 C356.676,317.616 363.972,322.392 355.224,328.416 C347.1,326.844 353.232,310.86 349.332,304.98 C347.88,302.256 344.472,303.324 342,302.004 C334.836,298.26 329.004,289.836 322.896,285.84 C321.912,285.168 320.964,284.964 319.956,284.328 C314.244,281.004 313.128,278.688 311.16,272.652 C306.024,256.956 317.964,249.708 327.312,241.776 C334.584,235.632 342.06,228.432 352.272,228.588 C356.196,229.98 355.92,235.704 359.64,237.396 C366.696,235.248 371.268,234.588 377.244,234.396 C378.504,224.892 368.484,220.272 371.412,213.888 C380.376,209.568 386.304,206.58 388.992,197.688 C391.092,191.028 393.924,184.368 397.824,180.084 C407.88,178.32 410.52,183.984 412.548,190.32 C412.452,196.68 404.76,195.324 406.62,203.628 C413.112,205.524 417.24,196.68 419.868,203.628 C418.872,213.876 410.676,216.972 405.192,222.696 C399.408,222.816 392.292,221.544 393.444,228.576 C392.808,236.484 405.72,230.928 409.608,234.384 C412.764,237.696 413.004,245.34 416.88,249.108 C419.628,251.748 426.936,255.132 430.128,254.964 C432.864,254.868 440.628,250.248 441.876,249.108 C448.488,243.156 442.644,233.964 440.376,225.588 C445.896,225.444 444.864,231.912 452.16,230.016 C458.58,226.032 462.288,223.836 462.444,218.244 C462.516,214.464 457.824,211.296 455.1,207.996 C451.728,203.988 448.164,201.456 447.756,197.688 C448.332,191.904 451.008,188.976 450.648,184.476 C449.88,173.268 436.344,167.556 431.556,156.528 C429.552,151.776 428.4,147.264 428.688,140.436 C424.236,133.896 414.444,136.308 406.584,134.544 C403.608,133.836 401.352,132.216 399.24,131.58 C380.904,125.7 369.852,146.364 371.388,165.384 C374.052,169.632 379.152,171.636 378.708,178.596 C378.42,182.868 374.424,189.192 368.46,188.904 C366.456,182.868 359.352,177.444 358.116,169.836 C357.84,167.628 359.448,163.488 359.628,160.98 C360.012,154.68 358.656,147.84 361.08,141.864 C369.036,136.596 384.528,138.828 381.672,122.76 C375.792,117.612 367.344,118.104 361.08,122.76 C354.312,112.032 346.764,117.336 340.5,122.76 C333.348,129.024 332.196,130.212 334.668,137.46 C335.112,138.828 335.112,141.66 336.144,143.34 C338.04,146.76 343.14,147.516 343.464,152.172 C343.68,155.064 342.6,156.324 341.988,158.028 C339.168,166.356 335.04,166.356 327.288,169.824 C324.492,174.876 326.472,180.54 319.944,182.988 C312.792,185.676 302.004,180.84 302.34,172.704 C313.26,172.908 321.684,167.016 322.884,159.492 C323.34,156.804 320.856,155.976 319.944,153.66 C317.196,146.268 319.476,136.14 321.408,131.568 C323.784,126.18 330.756,123.372 330.204,115.404 C320.952,109.668 315.624,122.052 306.732,121.284 C296.676,120.456 293.364,111.636 292.092,97.752 C282.648,90.264 272.34,86.352 265.548,93.408 C258.324,100.932 241.812,113.328 247.992,124.236 C252.516,128.58 262.44,122.748 265.548,125.724 C263.232,131.28 266.592,137.328 265.548,141.852 C265.26,143.508 262.068,145.896 261.204,147.756 C259.812,150.6 261.528,156.072 256.776,155.1 C249.888,154.656 248.112,149.04 245.028,144.816 C234.756,143.328 228.156,138.204 223.008,131.568 C208.632,131.448 195.924,132.936 183.372,134.532 C180.252,131.688 177.768,128.364 175.98,124.248 C170.712,123.708 169.44,118.02 165.696,115.416 C162.684,113.34 156.828,112.344 152.484,109.584 C151.872,109.152 151.68,107.172 150.996,106.608 C149.796,105.684 147.744,105.996 146.604,105.144 C145.884,104.7 145.884,102.768 145.164,102.216 C143.796,101.208 141.912,101.832 140.772,100.752 C137.76,98.028 137.052,94.236 134.904,91.944 C131.544,88.428 129.564,87.324 124.62,86.112 C116.052,83.892 108.852,87.396 104.052,89.016 C101.256,89.964 97.452,89.472 95.22,90.456 C89.592,92.976 85.392,98.412 79.044,100.752 C73.908,102.648 67.98,99.732 64.404,105.144 C62.868,115.968 68.916,127.008 64.404,135.972 C59.532,136.572 57.18,130.26 51.132,130.14 C49.86,130.092 45.984,132.144 43.788,133.068 C34.728,136.848 35.232,142.572 36.492,152.184 C39.132,157.908 51.288,153.996 52.608,160.98 C50.016,171.036 38.676,165.408 32.076,168.348 C30.996,168.804 28.56,172.116 26.196,174.18 C23.556,176.484 19.824,178.464 18.828,180.072 C16.284,184.392 13.992,194.076 14.46,197.676 C15.288,204.348 24.72,206.076 23.244,216.804 C26.988,219.492 33.324,219.492 33.516,225.576 C28.872,239.016 11.676,239.964 4.176,250.56 C20.472,250.728 27.216,241.368 39.408,237.372 C45.264,235.884 43.824,241.692 49.728,240.264 C58.392,235.764 54.192,220.62 62.892,218.22 C70.992,224.472 85.764,219.636 92.268,215.256 C95.232,217.116 98.172,219.996 102.576,222.672 C105.996,224.652 111.372,225.804 114.336,228.552 C115.992,230.088 118.956,237.504 120.228,238.848 C125.94,244.728 124.128,251.388 126.012,260.82 C126.432,262.644 126.804,264.108 127.488,266.7 C128.184,269.064 128.568,272.88 128.976,274.02 C130.548,277.788 135.084,280.764 136.32,284.268 C137.064,286.392 135.732,290.46 136.32,293.136 C136.86,295.308 138.96,297.936 139.284,298.98 C141.852,307.704 139.188,312.504 137.796,319.572 C140.124,325.908 145.692,329.232 146.604,335.748 C146.976,338.1 145.44,340.44 145.164,343.02 C144.18,351.804 143.82,352.752 142.248,357.768 C139.74,365.676 136.224,370.908 134.904,376.836 C132.888,385.596 133.032,401.088 134.904,407.7 C136.344,413.088 138.036,421.704 139.284,425.376 C142.272,434.028 149.268,434.124 153.984,441.516 C156.132,444.9 156.084,450.768 158.376,456.24 C161.244,462.78 168.408,466.884 165.696,476.772 C172.188,481.536 173.232,491.76 181.908,494.424 C183.288,487.596 176.196,481.596 180.348,476.772 C185.88,478.296 185.712,484.14 187.74,487.008 C188.628,488.28 191.268,488.76 192.156,490.032 C193.152,491.292 192.636,492.984 193.62,494.424 C196.488,498.552 201.36,500.844 202.428,506.148 C202.992,508.896 200.94,514.656 202.428,517.896 C206.148,526.092 230.964,538.62 240.612,539.964 C245.028,540.552 251.184,538.644 255.288,539.964 C259.164,541.116 262.32,547.296 268.584,550.224 C274.188,552.9 282.588,552.264 286.164,554.568 C292.884,559.02 293.976,567.324 297.936,570.768 C300.192,572.82 303.66,573.588 306.732,575.196 C314.892,579.384 318.768,583.056 325.86,575.196 L327.288,575.196 C330.468,581.34 335.712,585.876 334.656,595.752 C334.044,600.816 330.372,603.18 327.288,607.524 C325.044,610.74 320.04,615 318.48,619.296 C316.224,625.812 319.344,627.936 318.48,633.996 C317.856,638.208 314.94,641.34 315.54,644.244 C316.32,648.252 323.796,654.864 327.3,660.432 C331.26,666.756 335.16,675.372 337.584,679.548 C339.78,683.328 341.868,689.46 343.464,691.272 C351.936,701.004 365.532,701.28 369.9,713.292 C375.78,729.576 369.288,760.896 369.9,776.508 C370.164,781.944 371.736,787.464 371.388,792.648 C370.848,799.776 367.308,806.148 366.936,813.252 C366.864,815.916 368.1,819.48 368.46,823.524 C368.82,828.216 367.8,833.76 368.46,838.2 C368.964,842.184 371.1,844.548 371.388,848.508 C372.156,862.068 368.748,876.48 371.388,888.156 C372.492,893.196 376.524,898.332 378.708,902.856 C381.3,908.004 383.328,913.008 386.076,917.52 C396.156,920.988 406.404,935.436 419.832,926.328 C420.984,921.252 417.288,918.468 415.416,916.044 C412.728,912.516 410.04,911.424 408.06,907.236 C406.776,904.488 404.808,900.576 405.168,895.512 C405.54,888.648 412.98,883.716 412.512,876.384 C412.08,870.84 406.128,868.284 406.584,863.172 C411.396,855.708 416.004,848.112 415.416,835.248 C422.544,834.54 421.548,825.72 425.712,822.036 C431.712,819.78 439.164,818.904 443.316,814.716 C445.068,810.612 444.972,804.552 444.828,798.528 C448.32,796.692 453.696,796.644 456.552,794.124 C461.952,789.864 461.952,783.18 465.36,777.996 C467.172,775.188 470.964,773.22 472.728,770.628 C474.78,767.616 477.54,763.26 478.608,760.368 C481.452,752.388 477.72,748.68 481.5,742.752 C482.88,740.52 486.024,740.376 487.404,739.788 C487.86,739.572 488.328,737.196 488.868,736.824 C490.128,736.044 492.18,735.96 493.272,735.384 C494.988,734.448 495.936,733.176 497.664,732.42 C500.304,731.388 505.596,732.3 509.4,729.504 C517.26,723.78 521.508,707.424 522.648,694.26 C522.9,691.392 521.592,685.692 522.648,682.452 C523.572,679.704 528.624,674.46 531.456,670.728 C535.02,665.892 539.124,663.3 540.228,657.48 C542.64,645.744 536.988,645.084 530.016,639.852 L530.016,639.852 Z"></path>
                                    <path d="M911.952,184.5 C910.284,175.116 903.816,172.824 903.156,163.968 C902.904,160.788 905.172,157.62 906.072,153.696 C907.068,149.244 906.24,145.032 907.608,141.9 C907.992,140.844 910.896,139.176 911.952,137.496 C913.392,135.132 913.68,131.736 914.844,130.176 C920.268,123.168 930.924,119.556 931.02,111.108 C929.772,107.952 927.444,105.876 922.224,106.644 C919.872,110.34 917.844,112.392 913.404,115.452 C905.796,120.828 902.268,120.6 897.264,128.7 C892.332,136.68 892.896,142.824 891.384,155.16 C890.424,162.996 887.808,171.972 888.468,174.228 C890.556,181.248 902.532,187.632 911.952,184.5 L911.952,184.5 Z"></path>
                                    <path d="M646.128,235.92 C634.968,233.172 620.196,235.848 610.8,235.92 C609.12,244.344 611.436,255.252 619.632,257.964 C633.036,262.452 654.756,248.34 646.128,235.92 L646.128,235.92 Z"></path>
                                    <path d="M741.528,407.76 C739.332,410.004 738.96,417.816 744.468,416.592 C746.748,414.348 747.108,406.488 741.528,407.76 L741.528,407.76 Z"></path>
                                    <path d="M765.084,429.804 C770.088,430.464 773.424,429.336 772.38,423.936 C768.108,424.08 764.136,424.452 765.084,429.804 L765.084,429.804 Z"></path>
                                    <path d="M1277.676,488.568 C1275.588,490.692 1275.588,498.216 1277.676,500.316 C1283.928,500.124 1284.18,493.116 1282.128,488.568 L1277.676,488.568 L1277.676,488.568 Z"></path>
                                    <path d="M349.332,517.944 C347.88,510.084 339.78,508.884 331.704,507.696 L331.704,508.752 C329.724,507.948 327.792,507.036 325.872,506.436 L325.872,504.732 C326.088,502.308 316.8,502.308 317.064,504.732 C320.112,505.548 321.216,508.392 325.872,507.696 L325.872,506.496 L331.716,508.8 L331.716,510.576 C334.56,515.592 341.34,522.912 349.332,517.944 L349.332,517.944 Z"></path>
                                    <path d="M358.128,526.752 C363.912,530.976 373.776,529.608 377.244,523.848 C375.528,516.696 355.788,514.056 358.128,526.752 L358.128,526.752 Z"></path>
                                    <path d="M1288.008,523.836 C1272.24,523.284 1280.532,548.04 1285.044,553.236 C1289.28,553.356 1294.68,552.408 1296.864,554.616 C1291.152,559.632 1296.084,567.096 1296.864,572.28 C1297.428,576.456 1296.324,580.236 1296.864,581.1 C1298.508,584.316 1306.26,589.092 1308.564,588.468 C1317.54,586.188 1315.008,571.236 1307.076,566.436 C1307.328,562.812 1307.328,559.296 1305.624,557.604 C1300.896,552.516 1293.672,549.432 1290.984,541.428 C1289.028,535.908 1293.192,528.768 1288.008,523.836 L1288.008,523.836 Z"></path>
                                    <path d="M1252.728,660.432 C1253.268,654.252 1246.44,650.7 1242.48,650.184 C1238.304,649.548 1234.62,652.416 1230.756,651.672 C1228.62,651.18 1224.972,649.38 1223.352,648.672 C1220.688,647.604 1216.692,647.304 1216.044,644.256 C1216.092,639.468 1218.504,636.96 1217.472,631.02 C1212.3,626.184 1209.492,624.96 1207.224,619.296 C1204.212,612.024 1205.628,596.64 1202.832,591.42 C1200.288,586.668 1192.692,584.928 1189.572,581.112 C1187.928,579.12 1187.556,575.184 1186.668,573.78 C1184.868,570.948 1183.932,571.056 1182.228,567.948 C1181.892,566.736 1181.004,566.172 1179.324,566.46 C1172.544,580.812 1193.496,585.888 1186.668,600.264 C1179.024,598.56 1177.548,590.7 1167.54,591.432 C1164.408,599.076 1173.876,603.468 1177.824,609.024 C1178.292,609.696 1177.452,611.244 1177.824,611.94 C1177.992,612.432 1180.392,612.912 1180.752,613.38 C1181.22,614.088 1180.416,615.66 1180.752,616.38 C1181.004,616.884 1183.368,617.256 1183.68,617.868 C1185.9,621.696 1187.832,629.316 1189.56,631.032 C1194.492,636.204 1200.912,642.672 1205.748,645.756 C1207.632,647.016 1210.98,647.196 1213.116,648.684 C1217.016,651.564 1218.276,656.052 1221.912,657.468 C1223.568,658.188 1228.296,656.736 1232.172,657.468 C1234.86,658.056 1237.284,660.204 1239.492,660.444 C1244.28,660.972 1247.988,660.024 1252.728,660.432 L1252.728,660.432 Z"></path>
                                    <path d="M1264.488,585.516 C1254.432,595.548 1244.856,606.048 1230.756,611.928 C1225.776,629.94 1245.72,641.388 1263.012,636.948 C1266.192,629.304 1273.272,620.784 1274.772,613.368 C1275.516,609.672 1273.02,605.868 1273.284,601.692 C1273.596,596.952 1277.616,594.804 1276.236,589.92 C1272.84,587.94 1271.364,584.028 1264.488,585.516 L1264.488,585.516 Z"></path>
                                    <path d="M1282.128,620.784 C1276.692,624.912 1276.404,636.768 1280.664,642.816 L1295.34,642.816 C1296.876,638.196 1294.428,630.504 1295.34,622.272 C1292.952,619.764 1286.7,621.084 1282.128,620.784 L1282.128,620.784 Z"></path>
                                    <path d="M1420.212,733.884 C1418.844,731.412 1418.712,727.08 1417.296,725.088 C1414.068,720.54 1409.496,718.608 1406.988,713.292 C1402.464,703.92 1402.932,693.3 1398.192,688.368 C1394.832,684.852 1394.976,678.564 1389.384,678.072 C1380.912,682.824 1386.3,701.484 1377.624,705.972 C1368.492,704.316 1361.88,700.188 1358.556,692.76 C1359.84,689.172 1361.952,686.388 1361.436,681.036 C1353.084,676.812 1344.348,673.74 1336.488,676.608 C1328.832,679.356 1328.412,689.904 1320.3,691.272 C1317.072,690.12 1314.636,688.14 1310.064,688.368 C1302.672,693.252 1298.928,701.724 1289.46,704.508 C1284.768,727.188 1255.368,716.568 1245.408,732.408 C1241.772,738.168 1240.896,748.92 1241.004,755.928 C1241.22,765.84 1246.08,775.752 1245.408,786.804 C1245.084,791.856 1240.8,796.848 1242.492,802.92 C1244.592,803.796 1246.08,805.2 1246.884,807.36 C1254.324,809.892 1260.744,802.8 1268.88,801.444 C1272.192,800.916 1276.812,802.596 1280.664,801.444 C1285.104,800.064 1288.464,795.648 1292.376,794.124 C1296.048,792.744 1301.52,791.904 1305.624,791.16 C1323.66,787.908 1332.432,791.16 1336.464,805.86 C1343.112,809.016 1347.96,812.772 1351.116,819.132 C1353.576,823.908 1353.06,828.684 1355.604,833.784 C1361.256,840.324 1374.42,839.424 1383.48,842.568 C1387.056,838.38 1394.568,837.984 1399.656,835.248 C1404.276,830.688 1403.832,824.748 1406.976,819.132 C1407.324,818.544 1409.46,818.256 1409.94,817.644 C1410.768,816.492 1410.744,814.26 1411.356,813.252 C1413,810.768 1414.392,807.876 1415.796,805.86 C1419.096,801.216 1423.788,798.516 1426.044,794.124 C1426.86,792.624 1427.208,789.276 1427.532,788.244 C1429.476,782.508 1432.8,775.068 1433.46,769.164 C1435.26,752.448 1428.936,746.856 1423.128,736.824 C1422.396,735.48 1420.788,734.868 1420.212,733.884 L1420.212,733.884 Z"></path>
                                    <path d="M936.948,679.548 C932.46,682.704 931.596,687.528 926.676,691.272 C924.06,693.3 919.872,692.76 917.844,694.248 C910.836,699.264 913.656,705.24 911.964,714.804 C911.256,718.728 907.98,721.836 907.62,726.528 C906.9,733.512 907.464,737.4 911.964,742.752 C927.972,746.004 931.608,728.244 935.496,717.756 C939.792,705.984 947.256,690.132 941.376,679.56 C939.828,679.548 938.34,679.548 936.948,679.548 L936.948,679.548 Z"></path>
                                </g>
                            </g>
                        </g>
                        <g id="backgroundImage-Clipped">
                            <mask id="mask-4" fill="white">
                                <use xlink:href="#path-3"></use>
                            </mask>
                            <g id="SVGID_1_"></g>
                        </g>
                    </g>
                    <g transform="translate(288.000000, 120.000000)" id="Shape">
                        <g>
                            <path d="M308.064,525.984 L122.16,834.792 L216.048,834.792 C238.284,834.792 265.872,819.204 277.344,800.064 L356.436,668.448 C365.772,649.176 365.448,621.084 354.78,603.288 L308.064,525.984 L308.064,525.984 Z" fill="url(#radialGradient-5)"></path>
                            <path d="M223.092,385.32 C234.552,404.376 234.552,435.612 223.092,454.752 L14.28,803.88 C6.216,821.124 14.592,834.792 35.316,834.792 L122.148,834.792 L308.052,525.984 L223.092,385.32 L223.092,385.32 Z" fill="url(#radialGradient-6)"></path>
                            <path d="M35.316,5.208 C13.02,5.208 4.152,20.868 15.624,39.936 L354.78,603.312 C365.448,621.096 365.772,649.188 356.436,668.472 L438.876,531.264 L122.196,5.208 L35.316,5.208 L35.316,5.208 Z" fill="url(#radialGradient-7)"></path>
                            <path d="M484.788,385.32 L277.344,39.924 C265.872,20.856 238.272,5.196 216.048,5.196 L122.208,5.196 L438.888,531.252 L484.8,454.752 C496.26,435.624 496.26,404.376 484.788,385.32 L484.788,385.32 Z" fill="url(#radialGradient-8)"></path>
                            <path d="M354.78,603.3 L223.092,385.32 C234.552,404.376 234.552,435.612 223.092,454.752 L176.736,531.96 L356.448,668.46 C365.772,649.188 365.448,621.096 354.78,603.3 L354.78,603.3 Z" fill="url(#linearGradient-9)"></path>
                        </g>
                        <path d="M484.788,385.32 L277.344,39.924 C265.872,20.856 238.272,5.196 216.048,5.196 L122.208,5.196 L35.328,5.196 C13.032,5.196 4.164,20.856 15.636,39.924 L223.092,385.32 C234.552,404.376 234.552,435.612 223.092,454.752 L14.28,803.88 C6.216,821.124 14.592,834.792 35.316,834.792 L122.148,834.792 L216.036,834.792 C238.272,834.792 265.86,819.204 277.332,800.064 L438.864,531.252 L484.776,454.752 C496.26,435.624 496.26,404.376 484.788,385.32 L484.788,385.32 Z" fill="url(#radialGradient-10)"></path>
                    </g>
                </g>
            </g>
        </g>
    </g>
</svg>