<?xml version="1.0" encoding="UTF-8" standalone="no"?>
<svg width="1076px" height="1076px" viewBox="0 0 1076 1076" version="1.1" xmlns="http://www.w3.org/2000/svg" xmlns:xlink="http://www.w3.org/1999/xlink">
    <!-- Generator: Sketch 3.6 (26304) - http://www.bohemiancoding.com/sketch -->
    <title>logo_square_offcolor</title>
    <desc>Created with Sketch.</desc>
    <defs>
        <radialGradient cx="6.59649984%" cy="2.14172508%" fx="6.59649984%" fy="2.14172508%" r="137.109246%" id="radialGradient-1">
            <stop stop-color="#577EC0" offset="0%"></stop>
            <stop stop-color="#557EBF" offset="100%"></stop>
        </radialGradient>
        <path id="path-2" d="M1080,958.512 C1080,1025.328 1025.328,1080 958.512,1080 L121.488,1080 C54.672,1080 0,1025.328 0,958.512 L0,121.488 C0,54.672 54.672,0 121.488,0 L958.512,0 C1025.328,0 1080,54.672 1080,121.488 L1080,958.512 L1080,958.512 Z"></path>
        <radialGradient cx="50.0006826%" cy="49.9997318%" fx="50.0006826%" fy="49.9997318%" r="64.1609104%" id="radialGradient-4">
            <stop stop-color="#DEDEDE" offset="0%"></stop>
            <stop stop-color="#D1D1D1" offset="100%"></stop>
        </radialGradient>
        <radialGradient cx="49.9993505%" cy="49.9988543%" fx="49.9993505%" fy="49.9988543%" r="61.3220108%" id="radialGradient-5">
            <stop stop-color="#DEDEDE" offset="0%"></stop>
            <stop stop-color="#D1D1D1" offset="100%"></stop>
        </radialGradient>
        <linearGradient x1="122.536784%" y1="50%" x2="-2.69925607%" y2="50%" id="linearGradient-6">
            <stop stop-color="#231F20" stop-opacity="0.2" offset="0%"></stop>
            <stop stop-color="#F2F2F2" stop-opacity="0.25" offset="100%"></stop>
        </linearGradient>
        <radialGradient cx="50.0001888%" cy="49.9998547%" fx="50.0001888%" fy="49.9998547%" r="70.2900058%" id="radialGradient-7">
            <stop stop-color="#FFFFFF" stop-opacity="0.1" offset="0%"></stop>
            <stop stop-color="#FFFFFF" stop-opacity="0.091" offset="8.96%"></stop>
            <stop stop-color="#FFFFFF" stop-opacity="0" offset="100%"></stop>
        </radialGradient>
    </defs>
    <g id="Assets" stroke="none" stroke-width="1" fill="none" fill-rule="evenodd">
        <g id="logo_square" transform="translate(-1341.000000, -105.000000)">
            <g id="logo_square_offcolor" transform="translate(1341.000000, 105.000000)">
                <g id="Group">
                    <path d="M1075.152,954.216 C1075.152,1020.732 1020.732,1075.152 954.216,1075.152 L120.936,1075.152 C54.42,1075.152 0,1020.732 0,954.216 L0,120.936 C0,54.42 54.42,0 120.936,0 L954.204,0 C1020.72,0 1075.14,54.42 1075.14,120.936 L1075.14,954.216 L1075.152,954.216 Z" id="Shape" fill="url(#radialGradient-1)"></path>
                    <g>
                        <g id="backgroundImage-Clipped">
                            <mask id="mask-3" fill="white">
                                <use xlink:href="#path-2"></use>
                            </mask>
                            <g id="SVGID_A_"></g>
                        </g>
                        <g transform="translate(288.000000, 120.000000)" id="Shape">
                            <path d="M305.364,523.08 L120.3,830.508 L213.768,830.508 C235.896,830.508 263.364,814.992 274.776,795.936 L353.52,664.92 C362.796,645.708 362.496,617.76 351.852,600.048 L305.364,523.08 L305.364,523.08 Z" fill="#FFFFFF"></path>
                            <path d="M220.776,383.052 C232.188,402.024 232.188,433.128 220.776,452.184 L12.912,799.728 C4.872,816.9 13.212,830.508 33.84,830.508 L120.3,830.508 L305.364,523.08 L220.776,383.052 L220.776,383.052 Z" fill="url(#radialGradient-4)"></path>
                            <path d="M33.84,4.644 C11.64,4.644 2.832,20.232 14.244,39.216 L351.864,600.048 C362.508,617.772 362.808,645.72 353.532,664.92 L435.612,528.312 L120.36,4.632 L33.84,4.632 L33.84,4.644 Z" fill="#FFFFFF"></path>
                            <path d="M481.308,383.052 L274.776,39.216 C263.364,20.232 235.896,4.644 213.768,4.644 L120.348,4.644 L435.6,528.324 L481.308,452.184 C492.732,433.128 492.732,402.024 481.308,383.052 L481.308,383.052 Z" fill="url(#radialGradient-5)"></path>
                            <path d="M351.864,600.048 L220.776,383.052 C232.188,402.024 232.188,433.128 220.776,452.184 L174.624,529.032 L353.532,664.92 C362.808,645.72 362.508,617.76 351.864,600.048 L351.864,600.048 Z" fill="url(#linearGradient-6)"></path>
                        </g>
                        <path d="M769.308,503.052 L562.776,159.216 C551.364,140.232 523.896,124.644 501.768,124.644 L408.348,124.644 L321.84,124.644 C299.64,124.644 290.832,140.232 302.244,159.216 L508.776,503.052 C520.188,522.024 520.188,553.128 508.776,572.184 L300.912,919.728 C292.872,936.9 301.212,950.508 321.84,950.508 L408.3,950.508 L501.768,950.508 C523.896,950.508 551.364,934.992 562.776,915.936 L723.6,648.312 L769.308,572.172 C780.732,553.128 780.732,522.024 769.308,503.052 L769.308,503.052 Z" id="Shape" fill="url(#radialGradient-7)"></path>
                    </g>
                </g>
            </g>
        </g>
    </g>
</svg>