<?xml version="1.0" encoding="UTF-8" standalone="no"?>
<svg width="484px" height="830px" viewBox="0 0 484 830" version="1.1" xmlns="http://www.w3.org/2000/svg" xmlns:xlink="http://www.w3.org/1999/xlink">
    <!-- Generator: Sketch 3.6 (26304) - http://www.bohemiancoding.com/sketch -->
    <title>separate</title>
    <desc>Created with Sketch.</desc>
    <defs>
        <radialGradient cx="-54.1555987%" cy="-174.154426%" fx="-54.1555987%" fy="-174.154426%" r="402.157161%" id="radialGradient-1">
            <stop stop-color="#FFCE4E" offset="0%"></stop>
            <stop stop-color="#F5C337" offset="100%"></stop>
        </radialGradient>
        <radialGradient cx="-6.593919%" cy="-88.3500641%" fx="-6.593919%" fy="-88.3500641%" r="326.488856%" id="radialGradient-2">
            <stop stop-color="#0DA960" offset="0%"></stop>
            <stop stop-color="#05924B" offset="100%"></stop>
        </radialGradient>
        <radialGradient cx="-4.42276749%" cy="-2.56440874%" fx="-4.42276749%" fy="-2.56440874%" r="226.265021%" id="radialGradient-3">
            <stop stop-color="#577EC0" offset="0%"></stop>
            <stop stop-color="#557EBF" offset="100%"></stop>
        </radialGradient>
        <radialGradient cx="-35.1621493%" cy="-3.23098682%" fx="-35.1621493%" fy="-3.23098682%" r="261.057395%" id="radialGradient-4">
            <stop stop-color="#E04B3F" offset="0%"></stop>
            <stop stop-color="#CD382D" offset="100%"></stop>
        </radialGradient>
        <linearGradient x1="122.538745%" y1="50.0008476%" x2="-2.70910562%" y2="50.0008476%" id="linearGradient-5">
            <stop stop-color="#231F20" stop-opacity="0.2" offset="0%"></stop>
            <stop stop-color="#F2F2F2" stop-opacity="0.25" offset="100%"></stop>
        </linearGradient>
        <radialGradient cx="49.9993392%" cy="50.0007232%" fx="49.9993392%" fy="50.0007232%" r="70.2931732%" id="radialGradient-6">
            <stop stop-color="#FFFFFF" stop-opacity="0.1" offset="0%"></stop>
            <stop stop-color="#FFFFFF" stop-opacity="0.091" offset="8.96%"></stop>
            <stop stop-color="#FFFFFF" stop-opacity="0" offset="100%"></stop>
        </radialGradient>
    </defs>
    <g id="Assets" stroke="none" stroke-width="1" fill="none" fill-rule="evenodd">
        <g id="logo_square" transform="translate(-2787.000000, -230.000000)">
            <g id="separate" transform="translate(2777.000000, 225.000000)">
                <g id="Group">
                    <path d="M308.064,525.984 L122.16,834.792 L216.048,834.792 C238.284,834.792 265.872,819.204 277.344,800.064 L356.436,668.448 C365.772,649.176 365.448,621.084 354.78,603.288 L308.064,525.984 L308.064,525.984 Z" id="Shape" fill="url(#radialGradient-1)"></path>
                    <path d="M223.092,385.32 C234.552,404.376 234.552,435.612 223.092,454.752 L14.28,803.88 C6.216,821.124 14.592,834.792 35.316,834.792 L122.148,834.792 L308.052,525.984 L223.092,385.32 L223.092,385.32 Z" id="Shape" fill="url(#radialGradient-2)"></path>
                    <path d="M35.316,5.208 C13.02,5.208 4.152,20.868 15.624,39.936 L354.78,603.312 C365.448,621.096 365.772,649.188 356.436,668.472 L438.876,531.264 L122.196,5.208 L35.316,5.208 L35.316,5.208 Z" id="Shape" fill="url(#radialGradient-3)"></path>
                    <path d="M484.788,385.32 L277.344,39.924 C265.872,20.856 238.272,5.196 216.048,5.196 L122.208,5.196 L438.888,531.252 L484.8,454.752 C496.26,435.624 496.26,404.376 484.788,385.32 L484.788,385.32 Z" id="Shape" fill="url(#radialGradient-4)"></path>
                    <path d="M354.78,603.3 L223.092,385.32 C234.552,404.376 234.552,435.612 223.092,454.752 L176.736,531.96 L356.448,668.46 C365.772,649.188 365.448,621.096 354.78,603.3 L354.78,603.3 Z" id="Shape" fill="url(#linearGradient-5)"></path>
                </g>
                <path d="M484.788,385.32 L277.344,39.924 C265.872,20.856 238.272,5.196 216.048,5.196 L122.208,5.196 L35.328,5.196 C13.032,5.196 4.164,20.856 15.636,39.924 L223.092,385.32 C234.552,404.376 234.552,435.612 223.092,454.752 L14.28,803.88 C6.216,821.124 14.592,834.792 35.316,834.792 L122.148,834.792 L216.036,834.792 C238.272,834.792 265.86,819.204 277.332,800.064 L438.864,531.252 L484.776,454.752 C496.26,435.624 496.26,404.376 484.788,385.32 L484.788,385.32 Z" id="Shape" fill="url(#radialGradient-6)"></path>
            </g>
        </g>
    </g>
</svg>